M48
; DRILL file {KiCad 9.0.9} date 2026-07-21T23:55:25-0500
; FORMAT={-:-/ absolute / metric / decimal}
; #@! TF.CreationDate,2026-07-21T23:55:25-05:00
; #@! TF.GenerationSoftware,Kicad,Pcbnew,9.0.9
; #@! TF.FileFunction,Plated,1,2,PTH
FMAT,2
METRIC
; #@! TA.AperFunction,Plated,PTH,ViaDrill
T1C0.200
%
G90
G05
T1
X110.55Y-140.4
X110.55Y-141.2
X110.55Y-142.0
X110.55Y-142.8
X110.55Y-143.6
X110.55Y-144.4
X110.55Y-145.2
X110.55Y-146.0
X110.55Y-146.8
X110.55Y-147.6
X110.55Y-148.4
X110.55Y-149.2
X110.55Y-150.0
X110.55Y-150.8
X110.55Y-151.6
X110.55Y-152.4
X110.55Y-153.2
X110.55Y-154.0
X110.55Y-154.8
X110.55Y-155.6
X110.55Y-156.4
X110.55Y-157.2
X120.2Y-100.965
X120.2Y-102.235
X120.2Y-103.505
X120.2Y-104.775
X120.2Y-106.045
X120.2Y-107.315
X120.2Y-108.585
X120.2Y-109.855
X120.2Y-111.125
X120.2Y-112.395
X120.2Y-113.665
X120.2Y-114.935
X120.2Y-116.205
X120.2Y-117.475
X120.2Y-118.745
X120.2Y-120.015
X120.2Y-121.285
X120.2Y-122.555
X120.2Y-123.825
X120.2Y-125.095
X120.2Y-126.365
X120.2Y-127.635
M30
