%TF.GenerationSoftware,KiCad,Pcbnew,9.0.9*%
%TF.CreationDate,2026-07-21T23:55:24-05:00*%
%TF.ProjectId,FPCB_SOP44_to_TSOPII44_REV_D2_EDGE_PADS_TOP_10MM,46504342-5f53-44f5-9034-345f746f5f54,rev?*%
%TF.SameCoordinates,Original*%
%TF.FileFunction,Legend,Top*%
%TF.FilePolarity,Positive*%
%FSLAX46Y46*%
G04 Gerber Fmt 4.6, Leading zero omitted, Abs format (unit mm)*
G04 Created by KiCad (PCBNEW 9.0.9) date 2026-07-21 23:55:24*
%MOMM*%
%LPD*%
G01*
G04 APERTURE LIST*
G04 Aperture macros list*
%AMRoundRect*
0 Rectangle with rounded corners*
0 $1 Rounding radius*
0 $2 $3 $4 $5 $6 $7 $8 $9 X,Y pos of 4 corners*
0 Add a 4 corners polygon primitive as box body*
4,1,4,$2,$3,$4,$5,$6,$7,$8,$9,$2,$3,0*
0 Add four circle primitives for the rounded corners*
1,1,$1+$1,$2,$3*
1,1,$1+$1,$4,$5*
1,1,$1+$1,$6,$7*
1,1,$1+$1,$8,$9*
0 Add four rect primitives between the rounded corners*
20,1,$1+$1,$2,$3,$4,$5,0*
20,1,$1+$1,$4,$5,$6,$7,0*
20,1,$1+$1,$6,$7,$8,$9,0*
20,1,$1+$1,$8,$9,$2,$3,0*%
G04 Aperture macros list end*
%ADD10C,0.150000*%
%ADD11C,0.000000*%
%ADD12RoundRect,0.054000X0.646000X0.171000X-0.646000X0.171000X-0.646000X-0.171000X0.646000X-0.171000X0*%
%ADD13R,1.400000X0.450000*%
G04 APERTURE END LIST*
D10*
X113954819Y-152595237D02*
X113954819Y-152023809D01*
X114954819Y-152309523D02*
X113954819Y-152309523D01*
X114907200Y-151738094D02*
X114954819Y-151595237D01*
X114954819Y-151595237D02*
X114954819Y-151357142D01*
X114954819Y-151357142D02*
X114907200Y-151261904D01*
X114907200Y-151261904D02*
X114859580Y-151214285D01*
X114859580Y-151214285D02*
X114764342Y-151166666D01*
X114764342Y-151166666D02*
X114669104Y-151166666D01*
X114669104Y-151166666D02*
X114573866Y-151214285D01*
X114573866Y-151214285D02*
X114526247Y-151261904D01*
X114526247Y-151261904D02*
X114478628Y-151357142D01*
X114478628Y-151357142D02*
X114431009Y-151547618D01*
X114431009Y-151547618D02*
X114383390Y-151642856D01*
X114383390Y-151642856D02*
X114335771Y-151690475D01*
X114335771Y-151690475D02*
X114240533Y-151738094D01*
X114240533Y-151738094D02*
X114145295Y-151738094D01*
X114145295Y-151738094D02*
X114050057Y-151690475D01*
X114050057Y-151690475D02*
X114002438Y-151642856D01*
X114002438Y-151642856D02*
X113954819Y-151547618D01*
X113954819Y-151547618D02*
X113954819Y-151309523D01*
X113954819Y-151309523D02*
X114002438Y-151166666D01*
X113954819Y-150547618D02*
X113954819Y-150357142D01*
X113954819Y-150357142D02*
X114002438Y-150261904D01*
X114002438Y-150261904D02*
X114097676Y-150166666D01*
X114097676Y-150166666D02*
X114288152Y-150119047D01*
X114288152Y-150119047D02*
X114621485Y-150119047D01*
X114621485Y-150119047D02*
X114811961Y-150166666D01*
X114811961Y-150166666D02*
X114907200Y-150261904D01*
X114907200Y-150261904D02*
X114954819Y-150357142D01*
X114954819Y-150357142D02*
X114954819Y-150547618D01*
X114954819Y-150547618D02*
X114907200Y-150642856D01*
X114907200Y-150642856D02*
X114811961Y-150738094D01*
X114811961Y-150738094D02*
X114621485Y-150785713D01*
X114621485Y-150785713D02*
X114288152Y-150785713D01*
X114288152Y-150785713D02*
X114097676Y-150738094D01*
X114097676Y-150738094D02*
X114002438Y-150642856D01*
X114002438Y-150642856D02*
X113954819Y-150547618D01*
X114954819Y-149690475D02*
X113954819Y-149690475D01*
X113954819Y-149690475D02*
X113954819Y-149309523D01*
X113954819Y-149309523D02*
X114002438Y-149214285D01*
X114002438Y-149214285D02*
X114050057Y-149166666D01*
X114050057Y-149166666D02*
X114145295Y-149119047D01*
X114145295Y-149119047D02*
X114288152Y-149119047D01*
X114288152Y-149119047D02*
X114383390Y-149166666D01*
X114383390Y-149166666D02*
X114431009Y-149214285D01*
X114431009Y-149214285D02*
X114478628Y-149309523D01*
X114478628Y-149309523D02*
X114478628Y-149690475D01*
X114288152Y-148261904D02*
X114954819Y-148261904D01*
X113907200Y-148499999D02*
X114621485Y-148738094D01*
X114621485Y-148738094D02*
X114621485Y-148119047D01*
X114288152Y-147309523D02*
X114954819Y-147309523D01*
X113907200Y-147547618D02*
X114621485Y-147785713D01*
X114621485Y-147785713D02*
X114621485Y-147166666D01*
X114954819Y-146023808D02*
X113954819Y-146023808D01*
X114954819Y-145547618D02*
X113954819Y-145547618D01*
X117454819Y-156999999D02*
X117692914Y-156999999D01*
X117597676Y-157238094D02*
X117692914Y-156999999D01*
X117692914Y-156999999D02*
X117597676Y-156761904D01*
X117883390Y-157142856D02*
X117692914Y-156999999D01*
X117692914Y-156999999D02*
X117883390Y-156857142D01*
D11*
%TO.C,.*%
G36*
X113556359Y-112766656D02*
G01*
X113556359Y-112851323D01*
X113504256Y-112851323D01*
X113452154Y-112851323D01*
X113452154Y-112766656D01*
X113452154Y-112681990D01*
X113504256Y-112681990D01*
X113556359Y-112681990D01*
X113556359Y-112766656D01*
G37*
G36*
X113556359Y-113150913D02*
G01*
X113556359Y-113333272D01*
X113504256Y-113333272D01*
X113452154Y-113333272D01*
X113452154Y-113150913D01*
X113452154Y-112968554D01*
X113504256Y-112968554D01*
X113556359Y-112968554D01*
X113556359Y-113150913D01*
G37*
G36*
X113556359Y-113528656D02*
G01*
X113556359Y-113606810D01*
X113504256Y-113606810D01*
X113452154Y-113606810D01*
X113452154Y-113528656D01*
X113452154Y-113450502D01*
X113504256Y-113450502D01*
X113556359Y-113450502D01*
X113556359Y-113528656D01*
G37*
G36*
X113556359Y-113919425D02*
G01*
X113556359Y-114101784D01*
X113504256Y-114101784D01*
X113452154Y-114101784D01*
X113452154Y-113919425D01*
X113452154Y-113737066D01*
X113504256Y-113737066D01*
X113556359Y-113737066D01*
X113556359Y-113919425D01*
G37*
G36*
X113556359Y-114310195D02*
G01*
X113556359Y-114401374D01*
X113504256Y-114401374D01*
X113452154Y-114401374D01*
X113452154Y-114310195D01*
X113452154Y-114219015D01*
X113504256Y-114219015D01*
X113556359Y-114219015D01*
X113556359Y-114310195D01*
G37*
G36*
X113556359Y-114707477D02*
G01*
X113556359Y-114896348D01*
X113504256Y-114896348D01*
X113452154Y-114896348D01*
X113452154Y-114707477D01*
X113452154Y-114518605D01*
X113504256Y-114518605D01*
X113556359Y-114518605D01*
X113556359Y-114707477D01*
G37*
G36*
X113556359Y-115091733D02*
G01*
X113556359Y-115169887D01*
X113504256Y-115169887D01*
X113452154Y-115169887D01*
X113452154Y-115091733D01*
X113452154Y-115013579D01*
X113504256Y-115013579D01*
X113556359Y-115013579D01*
X113556359Y-115091733D01*
G37*
G36*
X113556359Y-115489015D02*
G01*
X113556359Y-115690913D01*
X113504256Y-115690913D01*
X113452154Y-115690913D01*
X113452154Y-115489015D01*
X113452154Y-115287118D01*
X113504256Y-115287118D01*
X113556359Y-115287118D01*
X113556359Y-115489015D01*
G37*
G36*
X113556359Y-115892810D02*
G01*
X113556359Y-115977477D01*
X113504256Y-115977477D01*
X113452154Y-115977477D01*
X113452154Y-115892810D01*
X113452154Y-115808143D01*
X113504256Y-115808143D01*
X113556359Y-115808143D01*
X113556359Y-115892810D01*
G37*
G36*
X113556359Y-116277066D02*
G01*
X113556359Y-116459425D01*
X113504256Y-116459425D01*
X113452154Y-116459425D01*
X113452154Y-116277066D01*
X113452154Y-116094707D01*
X113504256Y-116094707D01*
X113556359Y-116094707D01*
X113556359Y-116277066D01*
G37*
G36*
X113556359Y-116654810D02*
G01*
X113556359Y-116732964D01*
X113504256Y-116732964D01*
X113452154Y-116732964D01*
X113452154Y-116654810D01*
X113452154Y-116576656D01*
X113504256Y-116576656D01*
X113556359Y-116576656D01*
X113556359Y-116654810D01*
G37*
G36*
X113556359Y-117058605D02*
G01*
X113556359Y-117253990D01*
X113504256Y-117253990D01*
X113452154Y-117253990D01*
X113452154Y-117058605D01*
X113452154Y-116863220D01*
X113504256Y-116863220D01*
X113556359Y-116863220D01*
X113556359Y-117058605D01*
G37*
G36*
X113556359Y-117455887D02*
G01*
X113556359Y-117540554D01*
X113504256Y-117540554D01*
X113452154Y-117540554D01*
X113452154Y-117455887D01*
X113452154Y-117371220D01*
X113504256Y-117371220D01*
X113556359Y-117371220D01*
X113556359Y-117455887D01*
G37*
G36*
X113556359Y-117853169D02*
G01*
X113556359Y-118048554D01*
X113504256Y-118048554D01*
X113452154Y-118048554D01*
X113452154Y-117853169D01*
X113452154Y-117657784D01*
X113504256Y-117657784D01*
X113556359Y-117657784D01*
X113556359Y-117853169D01*
G37*
G36*
X113556359Y-118243938D02*
G01*
X113556359Y-118322092D01*
X113504256Y-118322092D01*
X113452154Y-118322092D01*
X113452154Y-118243938D01*
X113452154Y-118165784D01*
X113504256Y-118165784D01*
X113556359Y-118165784D01*
X113556359Y-118243938D01*
G37*
G36*
X113556359Y-118550041D02*
G01*
X113556359Y-118660759D01*
X113504256Y-118660759D01*
X113452154Y-118660759D01*
X113452154Y-118550041D01*
X113452154Y-118439323D01*
X113504256Y-118439323D01*
X113556359Y-118439323D01*
X113556359Y-118550041D01*
G37*
G36*
X113642872Y-116865763D02*
G01*
X113703334Y-116869733D01*
X113704210Y-117058605D01*
X113705085Y-117247477D01*
X113643748Y-117251447D01*
X113582410Y-117255417D01*
X113582410Y-117058605D01*
X113582410Y-116861793D01*
X113642872Y-116865763D01*
G37*
G36*
X113644282Y-115810686D02*
G01*
X113706154Y-115814656D01*
X113706154Y-115892810D01*
X113706154Y-115970964D01*
X113644282Y-115974934D01*
X113582410Y-115978904D01*
X113582410Y-115892810D01*
X113582410Y-115806716D01*
X113644282Y-115810686D01*
G37*
G36*
X113644282Y-115016122D02*
G01*
X113706154Y-115020092D01*
X113706844Y-115094990D01*
X113707534Y-115169887D01*
X113644972Y-115169887D01*
X113582410Y-115169887D01*
X113582410Y-115091019D01*
X113582410Y-115012152D01*
X113644282Y-115016122D01*
G37*
G36*
X113709602Y-113528656D02*
G01*
X113709602Y-113606810D01*
X113646006Y-113606810D01*
X113582410Y-113606810D01*
X113582410Y-113528656D01*
X113582410Y-113450502D01*
X113646006Y-113450502D01*
X113709602Y-113450502D01*
X113709602Y-113528656D01*
G37*
G36*
X113712667Y-118243938D02*
G01*
X113712667Y-118322092D01*
X113647538Y-118322092D01*
X113582410Y-118322092D01*
X113582410Y-118243938D01*
X113582410Y-118165784D01*
X113647538Y-118165784D01*
X113712667Y-118165784D01*
X113712667Y-118243938D01*
G37*
G36*
X113644282Y-117657790D02*
G01*
X113706154Y-117657795D01*
X113709493Y-117853174D01*
X113712833Y-118048554D01*
X113647622Y-118048554D01*
X113582410Y-118048554D01*
X113582410Y-117853169D01*
X113582410Y-117657784D01*
X113644282Y-117657790D01*
G37*
G36*
X113644282Y-112684532D02*
G01*
X113706154Y-112688502D01*
X113710032Y-112769913D01*
X113713910Y-112851323D01*
X113648160Y-112851323D01*
X113582410Y-112851323D01*
X113582410Y-112765942D01*
X113582410Y-112680562D01*
X113644282Y-112684532D01*
G37*
G36*
X113725692Y-112173990D02*
G01*
X113725692Y-112330297D01*
X113654051Y-112330297D01*
X113582410Y-112330297D01*
X113582410Y-112173990D01*
X113582410Y-112017682D01*
X113654051Y-112017682D01*
X113725692Y-112017682D01*
X113725692Y-112173990D01*
G37*
G36*
X113650795Y-118441899D02*
G01*
X113719180Y-118445836D01*
X113722759Y-118657502D01*
X113726338Y-118869169D01*
X113654374Y-118869169D01*
X113582410Y-118869169D01*
X113582410Y-118653565D01*
X113582410Y-118437961D01*
X113650795Y-118441899D01*
G37*
G36*
X113708846Y-116654810D02*
G01*
X113707753Y-116732964D01*
X113645082Y-116732964D01*
X113582410Y-116732964D01*
X113582410Y-116654810D01*
X113582410Y-116576656D01*
X113646175Y-116576656D01*
X113709940Y-116576656D01*
X113708846Y-116654810D01*
G37*
G36*
X113708896Y-113147656D02*
G01*
X113706154Y-113326759D01*
X113644282Y-113330729D01*
X113582410Y-113334699D01*
X113582410Y-113151626D01*
X113582410Y-112968554D01*
X113647024Y-112968554D01*
X113711638Y-112968554D01*
X113708896Y-113147656D01*
G37*
G36*
X113711051Y-117455887D02*
G01*
X113710401Y-117540554D01*
X113646406Y-117540554D01*
X113582410Y-117540554D01*
X113582410Y-117455887D01*
X113582410Y-117371220D01*
X113647056Y-117371220D01*
X113711701Y-117371220D01*
X113711051Y-117455887D01*
G37*
G36*
X113935502Y-114247498D02*
G01*
X113975978Y-114251579D01*
X113976879Y-114759579D01*
X113977780Y-115267579D01*
X113936403Y-115271661D01*
X113895026Y-115275743D01*
X113895026Y-114759579D01*
X113895026Y-114243416D01*
X113935502Y-114247498D01*
G37*
G36*
X113937359Y-117347600D02*
G01*
X113979692Y-117351682D01*
X113979692Y-117830360D01*
X113979692Y-118309038D01*
X113937359Y-118309052D01*
X113895026Y-118309066D01*
X113895026Y-117826292D01*
X113895026Y-117343518D01*
X113937359Y-117347600D01*
G37*
G36*
X113935749Y-115797549D02*
G01*
X113976473Y-115801631D01*
X113978763Y-116306374D01*
X113981052Y-116811118D01*
X113938039Y-116811118D01*
X113895026Y-116811118D01*
X113895026Y-116302292D01*
X113895026Y-115793467D01*
X113935749Y-115797549D01*
G37*
G36*
X113935673Y-113270553D02*
G01*
X113976889Y-113274656D01*
X113978291Y-113525984D01*
X113979692Y-113777312D01*
X113940615Y-113773471D01*
X113901538Y-113769631D01*
X113897998Y-113518040D01*
X113894457Y-113266450D01*
X113935673Y-113270553D01*
G37*
G36*
X114129511Y-118618425D02*
G01*
X114129535Y-118693323D01*
X114051357Y-118688909D01*
X113973180Y-118684496D01*
X113973180Y-118614012D01*
X113973180Y-118543528D01*
X114051333Y-118543528D01*
X114129487Y-118543528D01*
X114129511Y-118618425D01*
G37*
G36*
X114324872Y-108357477D02*
G01*
X114324872Y-108487733D01*
X114253231Y-108487733D01*
X114181590Y-108487733D01*
X114181590Y-108357477D01*
X114181590Y-108227220D01*
X114253231Y-108227220D01*
X114324872Y-108227220D01*
X114324872Y-108357477D01*
G37*
G36*
X114324872Y-108754759D02*
G01*
X114324872Y-108878502D01*
X114253231Y-108878502D01*
X114181590Y-108878502D01*
X114181590Y-108754759D01*
X114181590Y-108631015D01*
X114253231Y-108631015D01*
X114324872Y-108631015D01*
X114324872Y-108754759D01*
G37*
G36*
X113701672Y-116163092D02*
G01*
X113702787Y-116209434D01*
X113703897Y-116270136D01*
X113704794Y-116333506D01*
X113704929Y-116345447D01*
X113706154Y-116459417D01*
X113644282Y-116459421D01*
X113582410Y-116459425D01*
X113582410Y-116277066D01*
X113582410Y-116094707D01*
X113641026Y-116094707D01*
X113699641Y-116094707D01*
X113701672Y-116163092D01*
G37*
G36*
X113712667Y-112519169D02*
G01*
X113712667Y-112590810D01*
X113647538Y-112590810D01*
X113582410Y-112590810D01*
X113582410Y-112527853D01*
X113584072Y-112489266D01*
X113588293Y-112462393D01*
X113591094Y-112456212D01*
X113608442Y-112450873D01*
X113641650Y-112447812D01*
X113656222Y-112447528D01*
X113712667Y-112447528D01*
X113712667Y-112519169D01*
G37*
G36*
X113706154Y-113916165D02*
G01*
X113706154Y-114101776D01*
X113644282Y-114101780D01*
X113582410Y-114101784D01*
X113582410Y-113919425D01*
X113582629Y-113853787D01*
X113583231Y-113798503D01*
X113584131Y-113758266D01*
X113585247Y-113737768D01*
X113585667Y-113736127D01*
X113599405Y-113735098D01*
X113630345Y-113733586D01*
X113647538Y-113732871D01*
X113706154Y-113730554D01*
X113706154Y-113916165D01*
G37*
G36*
X113699641Y-115475990D02*
G01*
X113699855Y-115543771D01*
X113700443Y-115602158D01*
X113701324Y-115646251D01*
X113702419Y-115671148D01*
X113702897Y-115674631D01*
X113693227Y-115681041D01*
X113664961Y-115686455D01*
X113644282Y-115688370D01*
X113582410Y-115692340D01*
X113582410Y-115489729D01*
X113582410Y-115287118D01*
X113641026Y-115287118D01*
X113699641Y-115287118D01*
X113699641Y-115475990D01*
G37*
G36*
X113644282Y-114521148D02*
G01*
X113706154Y-114525118D01*
X113703290Y-114674913D01*
X113702101Y-114738451D01*
X113701077Y-114795541D01*
X113700341Y-114839268D01*
X113700034Y-114860528D01*
X113697750Y-114882587D01*
X113686815Y-114893035D01*
X113660141Y-114896174D01*
X113641026Y-114896348D01*
X113582410Y-114896348D01*
X113582410Y-114706763D01*
X113582410Y-114517178D01*
X113644282Y-114521148D01*
G37*
G36*
X113675803Y-114222667D02*
G01*
X113698418Y-114230705D01*
X113702282Y-114235297D01*
X113705188Y-114256790D01*
X113706812Y-114294466D01*
X113706932Y-114323220D01*
X113706154Y-114394861D01*
X113644282Y-114398831D01*
X113582410Y-114402801D01*
X113582410Y-114319592D01*
X113583677Y-114275181D01*
X113586981Y-114241801D01*
X113591094Y-114227699D01*
X113611148Y-114220413D01*
X113643049Y-114218986D01*
X113675803Y-114222667D01*
G37*
G36*
X115158513Y-108357477D02*
G01*
X115158513Y-108487733D01*
X115067333Y-108487733D01*
X114976154Y-108487733D01*
X114976154Y-108559374D01*
X114976154Y-108631015D01*
X115067333Y-108631015D01*
X115158513Y-108631015D01*
X115158513Y-108754759D01*
X115158513Y-108878502D01*
X115008718Y-108878502D01*
X114858923Y-108878502D01*
X114858923Y-108552861D01*
X114858923Y-108227220D01*
X115008718Y-108227220D01*
X115158513Y-108227220D01*
X115158513Y-108357477D01*
G37*
G36*
X115575333Y-108357477D02*
G01*
X115575333Y-108487733D01*
X115490667Y-108487733D01*
X115406000Y-108487733D01*
X115406000Y-108559374D01*
X115406000Y-108631015D01*
X115490667Y-108631015D01*
X115575333Y-108631015D01*
X115575333Y-108754759D01*
X115575333Y-108878502D01*
X115432051Y-108878502D01*
X115288769Y-108878502D01*
X115288769Y-108552861D01*
X115288769Y-108227220D01*
X115432051Y-108227220D01*
X115575333Y-108227220D01*
X115575333Y-108357477D01*
G37*
G36*
X116083333Y-108552861D02*
G01*
X116083333Y-108878502D01*
X116031231Y-108878502D01*
X115979128Y-108878502D01*
X115979128Y-108617990D01*
X115979128Y-108357477D01*
X115914000Y-108357477D01*
X115848872Y-108357477D01*
X115848872Y-108617990D01*
X115848872Y-108878502D01*
X115777231Y-108878502D01*
X115705590Y-108878502D01*
X115705590Y-108552861D01*
X115705590Y-108227220D01*
X115894462Y-108227220D01*
X116083333Y-108227220D01*
X116083333Y-108552861D01*
G37*
G36*
X114588455Y-108230021D02*
G01*
X114721781Y-108233733D01*
X114719970Y-108331425D01*
X114718967Y-108397600D01*
X114717426Y-108442049D01*
X114713181Y-108469044D01*
X114704066Y-108482860D01*
X114687916Y-108487771D01*
X114662564Y-108488050D01*
X114640744Y-108487771D01*
X114565846Y-108487809D01*
X114565846Y-108556156D01*
X114565846Y-108624502D01*
X114640767Y-108624502D01*
X114715689Y-108624502D01*
X114715665Y-108751502D01*
X114715641Y-108878502D01*
X114585385Y-108878502D01*
X114455128Y-108878502D01*
X114455128Y-108552406D01*
X114455128Y-108226309D01*
X114588455Y-108230021D01*
G37*
G36*
X114119718Y-112044571D02*
G01*
X114152268Y-112046292D01*
X114204507Y-112050463D01*
X114270247Y-112056531D01*
X114343299Y-112063944D01*
X114375044Y-112067366D01*
X114575010Y-112089323D01*
X114573073Y-112290747D01*
X114572121Y-112360305D01*
X114570765Y-112420078D01*
X114569153Y-112465493D01*
X114567430Y-112491977D01*
X114566475Y-112496830D01*
X114552674Y-112497136D01*
X114517005Y-112495222D01*
X114463531Y-112491382D01*
X114396315Y-112485908D01*
X114319418Y-112479096D01*
X114313087Y-112478513D01*
X114064359Y-112455536D01*
X114064359Y-112249634D01*
X114064359Y-112043733D01*
X114119718Y-112044571D01*
G37*
G36*
X114295564Y-112607943D02*
G01*
X114333497Y-112612747D01*
X114386062Y-112618203D01*
X114441903Y-112623133D01*
X114442103Y-112623149D01*
X114499400Y-112628043D01*
X114554865Y-112633336D01*
X114595586Y-112637779D01*
X114651377Y-112644638D01*
X114647688Y-112782858D01*
X114644000Y-112921077D01*
X114556281Y-112917874D01*
X114468561Y-112914670D01*
X114471629Y-112983945D01*
X114474697Y-113053220D01*
X114559349Y-113059733D01*
X114644000Y-113066246D01*
X114647419Y-113538425D01*
X114650838Y-114010605D01*
X114595316Y-114009382D01*
X114558963Y-114007487D01*
X114504994Y-114003346D01*
X114441681Y-113997637D01*
X114396513Y-113993100D01*
X114253231Y-113978041D01*
X114246718Y-113886861D01*
X114240205Y-113795682D01*
X114145769Y-113791855D01*
X114051333Y-113788028D01*
X114051333Y-113533068D01*
X114051333Y-113278108D01*
X114149026Y-113287263D01*
X114246718Y-113296417D01*
X114246718Y-112948462D01*
X114246718Y-112600506D01*
X114295564Y-112607943D01*
G37*
G36*
X114243462Y-115658834D02*
G01*
X114286716Y-115663384D01*
X114347501Y-115669467D01*
X114417403Y-115676252D01*
X114481180Y-115682275D01*
X114644000Y-115697425D01*
X114647543Y-115949672D01*
X114651086Y-116201919D01*
X114608466Y-116194275D01*
X114576214Y-116189881D01*
X114526713Y-116184715D01*
X114468713Y-116179655D01*
X114445359Y-116177877D01*
X114324872Y-116169123D01*
X114324872Y-116338785D01*
X114324872Y-116508447D01*
X114438846Y-116516934D01*
X114497645Y-116521729D01*
X114552619Y-116526928D01*
X114594014Y-116531590D01*
X114601667Y-116532645D01*
X114650513Y-116539869D01*
X114650513Y-116803838D01*
X114650513Y-117067806D01*
X114588641Y-117062058D01*
X114551041Y-117058564D01*
X114495222Y-117053377D01*
X114428903Y-117047213D01*
X114363949Y-117041175D01*
X114201128Y-117026041D01*
X114197336Y-116925754D01*
X114193543Y-116825468D01*
X114125695Y-116821549D01*
X114057846Y-116817631D01*
X114054437Y-116312887D01*
X114051027Y-115808143D01*
X114109796Y-115808143D01*
X114168564Y-115808143D01*
X114168564Y-115729343D01*
X114168564Y-115650542D01*
X114243462Y-115658834D01*
G37*
G36*
X114779664Y-117268493D02*
G01*
X114817074Y-117272133D01*
X114873037Y-117277719D01*
X114943872Y-117284881D01*
X115025901Y-117293250D01*
X115086872Y-117299512D01*
X115174010Y-117308480D01*
X115252065Y-117316505D01*
X115317457Y-117323218D01*
X115366606Y-117328254D01*
X115395930Y-117331244D01*
X115402744Y-117331923D01*
X115404354Y-117343961D01*
X115405518Y-117375415D01*
X115405998Y-117419649D01*
X115406000Y-117422701D01*
X115406000Y-117513259D01*
X115487410Y-117517137D01*
X115568821Y-117521015D01*
X115568821Y-118022502D01*
X115568821Y-118523990D01*
X115490667Y-118530502D01*
X115412513Y-118537015D01*
X115411713Y-118589118D01*
X115410913Y-118641220D01*
X115323790Y-118645072D01*
X115236667Y-118648923D01*
X115236667Y-118192679D01*
X115236667Y-117736435D01*
X115207359Y-117730506D01*
X115179403Y-117726441D01*
X115135466Y-117721699D01*
X115090128Y-117717723D01*
X115002205Y-117710867D01*
X115002205Y-118030817D01*
X115002205Y-118350767D01*
X114943590Y-118346105D01*
X114884974Y-118341443D01*
X114884974Y-118448998D01*
X114884974Y-118556554D01*
X114819846Y-118556554D01*
X114754718Y-118556554D01*
X114754718Y-117911784D01*
X114754909Y-117784956D01*
X114755457Y-117666401D01*
X114756325Y-117558597D01*
X114757475Y-117464021D01*
X114758869Y-117385151D01*
X114760471Y-117324466D01*
X114762241Y-117284443D01*
X114764144Y-117267559D01*
X114764487Y-117267168D01*
X114779664Y-117268493D01*
G37*
G36*
X114797051Y-114167300D02*
G01*
X114825159Y-114168713D01*
X114873174Y-114172325D01*
X114935092Y-114177640D01*
X115004910Y-114184160D01*
X115028256Y-114186451D01*
X115096476Y-114193153D01*
X115155943Y-114198852D01*
X115201600Y-114203074D01*
X115228390Y-114205346D01*
X115232661Y-114205602D01*
X115243354Y-114217661D01*
X115250858Y-114248273D01*
X115252200Y-114261348D01*
X115256205Y-114316707D01*
X115331103Y-114320614D01*
X115406000Y-114324520D01*
X115406000Y-114421563D01*
X115406000Y-114518605D01*
X115461359Y-114518783D01*
X115503928Y-114520760D01*
X115540008Y-114525438D01*
X115546177Y-114526854D01*
X115575636Y-114534748D01*
X115572228Y-115037933D01*
X115568821Y-115541118D01*
X115487410Y-115536663D01*
X115406000Y-115532208D01*
X115406000Y-115600305D01*
X115406000Y-115668402D01*
X115345567Y-115660119D01*
X115301745Y-115655014D01*
X115263973Y-115652098D01*
X115254387Y-115651836D01*
X115223641Y-115651836D01*
X115223641Y-115197753D01*
X115223641Y-114743669D01*
X115155256Y-114735456D01*
X115106426Y-114730564D01*
X115060890Y-114727563D01*
X115044538Y-114727128D01*
X115002205Y-114727015D01*
X115002205Y-115049494D01*
X115002205Y-115371972D01*
X114943590Y-115367310D01*
X114884974Y-115362648D01*
X114884974Y-115461652D01*
X114884974Y-115560656D01*
X114849154Y-115560478D01*
X114810088Y-115557372D01*
X114784026Y-115552446D01*
X114754718Y-115544592D01*
X114754718Y-114855752D01*
X114754718Y-114166913D01*
X114797051Y-114167300D01*
G37*
G36*
X114250479Y-117204958D02*
G01*
X114300737Y-117208811D01*
X114361048Y-117214198D01*
X114426143Y-117220587D01*
X114490751Y-117227446D01*
X114549604Y-117234242D01*
X114597431Y-117240444D01*
X114628964Y-117245519D01*
X114638592Y-117248159D01*
X114642886Y-117263169D01*
X114646492Y-117299325D01*
X114649105Y-117351723D01*
X114650417Y-117415462D01*
X114650513Y-117438658D01*
X114650513Y-117621789D01*
X114536538Y-117613302D01*
X114477739Y-117608507D01*
X114422765Y-117603308D01*
X114381370Y-117598645D01*
X114373718Y-117597590D01*
X114324872Y-117590366D01*
X114324872Y-117759314D01*
X114324872Y-117928262D01*
X114425821Y-117936632D01*
X114484931Y-117941843D01*
X114543259Y-117947492D01*
X114588277Y-117952367D01*
X114588641Y-117952410D01*
X114650513Y-117959819D01*
X114650513Y-118250905D01*
X114650095Y-118335217D01*
X114648923Y-118410405D01*
X114647123Y-118472693D01*
X114644819Y-118518303D01*
X114642135Y-118543460D01*
X114640744Y-118547163D01*
X114625195Y-118547776D01*
X114588050Y-118546293D01*
X114533658Y-118542975D01*
X114466368Y-118538084D01*
X114399769Y-118532672D01*
X114168564Y-118513007D01*
X114168564Y-118417550D01*
X114168564Y-118322092D01*
X114109949Y-118322092D01*
X114051333Y-118322092D01*
X114051333Y-117835815D01*
X114051333Y-117349538D01*
X114120918Y-117355309D01*
X114190502Y-117361079D01*
X114192974Y-117285409D01*
X114195221Y-117243714D01*
X114198483Y-117213877D01*
X114201202Y-117203984D01*
X114215544Y-117203172D01*
X114250479Y-117204958D01*
G37*
G36*
X114217410Y-114115233D02*
G01*
X114256765Y-114116802D01*
X114310703Y-114120599D01*
X114373710Y-114126046D01*
X114440272Y-114132563D01*
X114504877Y-114139572D01*
X114562011Y-114146494D01*
X114606161Y-114152749D01*
X114631813Y-114157758D01*
X114635433Y-114159130D01*
X114641507Y-114173364D01*
X114645950Y-114208477D01*
X114648853Y-114265910D01*
X114650302Y-114347107D01*
X114650513Y-114403771D01*
X114650513Y-114639092D01*
X114610952Y-114631180D01*
X114580407Y-114626750D01*
X114532203Y-114621601D01*
X114474684Y-114616583D01*
X114448132Y-114614604D01*
X114324872Y-114605939D01*
X114324872Y-114769133D01*
X114324872Y-114932327D01*
X114451872Y-114940978D01*
X114510996Y-114945462D01*
X114563911Y-114950292D01*
X114602747Y-114954714D01*
X114614692Y-114956587D01*
X114650513Y-114963547D01*
X114650513Y-115242563D01*
X114650355Y-115335025D01*
X114649713Y-115404629D01*
X114648336Y-115454566D01*
X114645971Y-115488028D01*
X114642366Y-115508208D01*
X114637269Y-115518296D01*
X114630428Y-115521486D01*
X114628481Y-115521579D01*
X114606007Y-115520382D01*
X114563751Y-115517158D01*
X114507858Y-115512460D01*
X114444468Y-115506838D01*
X114379726Y-115500845D01*
X114319774Y-115495032D01*
X114270753Y-115489951D01*
X114249974Y-115487584D01*
X114194615Y-115480906D01*
X114194615Y-115384012D01*
X114194615Y-115287118D01*
X114122974Y-115287118D01*
X114051333Y-115287118D01*
X114051333Y-114770911D01*
X114051333Y-114254704D01*
X114109949Y-114261311D01*
X114168564Y-114267918D01*
X114168564Y-114191364D01*
X114168564Y-114114810D01*
X114217410Y-114115233D01*
G37*
G36*
X114823103Y-112658514D02*
G01*
X114891487Y-112662451D01*
X114895302Y-112756280D01*
X114899117Y-112850109D01*
X114979969Y-112853972D01*
X115060821Y-112857836D01*
X115060821Y-112922964D01*
X115060821Y-112988092D01*
X115152000Y-113001118D01*
X115243180Y-113014143D01*
X115247117Y-113082528D01*
X115250144Y-113122270D01*
X115256294Y-113142549D01*
X115270088Y-113149913D01*
X115294335Y-113150913D01*
X115339643Y-113153580D01*
X115378321Y-113159054D01*
X115402712Y-113165707D01*
X115414697Y-113177994D01*
X115418666Y-113203640D01*
X115419026Y-113230695D01*
X115419026Y-113294195D01*
X115471985Y-113294195D01*
X115502269Y-113294132D01*
X115525984Y-113295835D01*
X115543929Y-113302134D01*
X115556908Y-113315864D01*
X115565721Y-113339857D01*
X115571171Y-113376946D01*
X115574060Y-113429964D01*
X115575188Y-113501745D01*
X115575358Y-113595120D01*
X115575333Y-113659371D01*
X115574974Y-113750159D01*
X115573960Y-113831733D01*
X115572392Y-113900672D01*
X115570368Y-113953554D01*
X115567987Y-113986957D01*
X115565564Y-113997543D01*
X115550582Y-113996238D01*
X115513020Y-113992567D01*
X115456209Y-113986866D01*
X115383480Y-113979474D01*
X115298163Y-113970727D01*
X115203589Y-113960962D01*
X115179518Y-113958466D01*
X115082311Y-113948465D01*
X114992750Y-113939410D01*
X114914337Y-113931644D01*
X114850570Y-113925508D01*
X114804952Y-113921343D01*
X114780981Y-113919489D01*
X114778980Y-113919425D01*
X114770565Y-113917977D01*
X114764355Y-113911355D01*
X114760015Y-113896143D01*
X114757215Y-113868924D01*
X114755621Y-113826282D01*
X114754900Y-113764800D01*
X114754719Y-113681063D01*
X114754718Y-113670273D01*
X114754718Y-113421121D01*
X114803564Y-113428641D01*
X114839555Y-113433186D01*
X114891783Y-113438581D01*
X114950497Y-113443840D01*
X114966385Y-113445123D01*
X115080359Y-113454085D01*
X115080359Y-113394715D01*
X115080359Y-113335345D01*
X114995692Y-113326278D01*
X114911026Y-113317211D01*
X114911026Y-113260760D01*
X114911026Y-113204309D01*
X114832872Y-113195467D01*
X114754718Y-113186625D01*
X114754718Y-112920601D01*
X114754718Y-112654577D01*
X114823103Y-112658514D01*
G37*
G36*
X114366572Y-109887133D02*
G01*
X114419087Y-109890502D01*
X114481395Y-109895929D01*
X114487374Y-109896516D01*
X114650513Y-109912699D01*
X114650513Y-110296052D01*
X114650513Y-110679405D01*
X114546308Y-110670315D01*
X114442103Y-110661225D01*
X114441592Y-110828197D01*
X114441200Y-110906900D01*
X114440535Y-110990677D01*
X114439695Y-111068419D01*
X114438964Y-111118913D01*
X114436846Y-111242656D01*
X114546936Y-111251342D01*
X114612845Y-111256641D01*
X114682557Y-111262400D01*
X114702615Y-111264107D01*
X114741673Y-111267430D01*
X114744949Y-111267715D01*
X114832872Y-111275402D01*
X114832872Y-111130512D01*
X114832872Y-110985621D01*
X114917538Y-110993652D01*
X114980559Y-110999629D01*
X115049704Y-111006187D01*
X115086872Y-111009712D01*
X115171538Y-111017742D01*
X115171538Y-111504686D01*
X115171418Y-111632133D01*
X115170997Y-111735843D01*
X115170187Y-111818131D01*
X115168898Y-111881311D01*
X115167043Y-111927698D01*
X115164531Y-111959605D01*
X115161274Y-111979347D01*
X115157183Y-111989238D01*
X115152822Y-111991631D01*
X115135118Y-111990254D01*
X115095526Y-111986413D01*
X115038047Y-111980538D01*
X114966682Y-111973059D01*
X114885432Y-111964406D01*
X114798299Y-111955011D01*
X114709285Y-111945304D01*
X114622390Y-111935715D01*
X114541615Y-111926675D01*
X114470963Y-111918616D01*
X114431722Y-111914030D01*
X114380483Y-111907260D01*
X114339057Y-111900483D01*
X114314402Y-111894884D01*
X114311235Y-111893560D01*
X114305701Y-111877920D01*
X114301437Y-111842609D01*
X114299085Y-111794002D01*
X114298821Y-111770076D01*
X114298821Y-111654264D01*
X114223923Y-111650357D01*
X114149026Y-111646451D01*
X114149828Y-111552644D01*
X114150631Y-111458837D01*
X114097726Y-111454952D01*
X114044821Y-111451066D01*
X114044444Y-111379425D01*
X114650513Y-111379425D01*
X114650513Y-111607374D01*
X114650513Y-111835323D01*
X114702615Y-111835323D01*
X114754718Y-111835323D01*
X114754718Y-111607374D01*
X114754718Y-111379425D01*
X114702615Y-111379425D01*
X114650513Y-111379425D01*
X114044444Y-111379425D01*
X114041441Y-110809554D01*
X114038062Y-110168041D01*
X114093872Y-110168041D01*
X114149682Y-110168041D01*
X114149354Y-110093143D01*
X114149026Y-110018246D01*
X114227180Y-110022218D01*
X114305333Y-110026189D01*
X114302935Y-109960584D01*
X114303721Y-109921572D01*
X114308376Y-109894433D01*
X114312386Y-109887656D01*
X114329216Y-109886094D01*
X114366572Y-109887133D01*
G37*
G36*
X114781461Y-115737213D02*
G01*
X114785048Y-115761665D01*
X114783336Y-115807522D01*
X114783289Y-115808176D01*
X114782504Y-115864537D01*
X114791836Y-115900067D01*
X114814021Y-115918918D01*
X114851795Y-115925245D01*
X114860518Y-115925374D01*
X114911026Y-115925374D01*
X114911026Y-115839190D01*
X114911026Y-115753006D01*
X114995692Y-115761036D01*
X115015231Y-115762889D01*
X115058713Y-115767013D01*
X115127858Y-115773571D01*
X115165026Y-115777097D01*
X115249692Y-115785127D01*
X115249692Y-115848738D01*
X115249692Y-115912348D01*
X115307242Y-115912348D01*
X115357337Y-115914059D01*
X115386842Y-115922569D01*
X115401164Y-115942943D01*
X115405706Y-115980250D01*
X115406000Y-116004922D01*
X115406000Y-116081682D01*
X115461359Y-116081860D01*
X115503934Y-116083838D01*
X115540025Y-116088519D01*
X115546195Y-116089936D01*
X115575672Y-116097834D01*
X115572246Y-116542399D01*
X115568821Y-116986964D01*
X115487410Y-116982725D01*
X115406000Y-116978487D01*
X115406000Y-117057623D01*
X115406361Y-117087470D01*
X115405202Y-117109441D01*
X115399162Y-117124326D01*
X115384879Y-117132915D01*
X115358989Y-117135999D01*
X115318132Y-117134369D01*
X115258946Y-117128814D01*
X115178067Y-117120125D01*
X115152000Y-117117336D01*
X115083557Y-117110266D01*
X115022485Y-117104330D01*
X114974425Y-117100051D01*
X114945020Y-117097949D01*
X114940860Y-117097821D01*
X114926664Y-117095993D01*
X114917805Y-117087206D01*
X114912708Y-117066253D01*
X114909798Y-117027925D01*
X114908296Y-116990220D01*
X114904513Y-116882759D01*
X114842641Y-116878789D01*
X114780769Y-116874819D01*
X114780769Y-116979737D01*
X114779255Y-117031599D01*
X114775119Y-117068075D01*
X114768967Y-117084271D01*
X114767744Y-117084656D01*
X114761275Y-117072479D01*
X114756735Y-117039278D01*
X114754755Y-116990048D01*
X114754718Y-116981516D01*
X114754325Y-116930474D01*
X114753285Y-116888558D01*
X114751805Y-116863435D01*
X114751462Y-116861029D01*
X114750849Y-116844686D01*
X114750429Y-116805072D01*
X114750203Y-116744964D01*
X114750168Y-116667144D01*
X114750325Y-116574388D01*
X114750672Y-116469476D01*
X114750759Y-116451098D01*
X115015231Y-116451098D01*
X115015231Y-116628759D01*
X115077103Y-116628902D01*
X115127259Y-116630821D01*
X115176220Y-116635426D01*
X115187821Y-116637119D01*
X115236667Y-116645193D01*
X115236667Y-116467643D01*
X115236667Y-116290092D01*
X115194333Y-116289979D01*
X115155841Y-116288302D01*
X115106712Y-116284184D01*
X115083615Y-116281652D01*
X115015231Y-116273438D01*
X115015231Y-116451098D01*
X114750759Y-116451098D01*
X114751210Y-116355188D01*
X114751601Y-116286836D01*
X114752591Y-116147368D01*
X114753753Y-116031956D01*
X114755160Y-115938607D01*
X114756886Y-115865325D01*
X114759002Y-115810117D01*
X114761582Y-115770988D01*
X114764700Y-115745944D01*
X114768427Y-115732989D01*
X114771971Y-115729990D01*
X114781461Y-115737213D01*
G37*
G36*
X114774670Y-109951474D02*
G01*
X114794287Y-109955652D01*
X114819846Y-109959616D01*
X114834434Y-109961878D01*
X114889743Y-109969390D01*
X114954846Y-109977430D01*
X114973109Y-109979559D01*
X115043994Y-109987731D01*
X115110514Y-109995429D01*
X115165878Y-110001866D01*
X115203297Y-110006253D01*
X115207359Y-110006736D01*
X115262718Y-110013329D01*
X115262718Y-110081414D01*
X115262718Y-110149498D01*
X115485866Y-110172085D01*
X115559695Y-110179882D01*
X115624552Y-110187348D01*
X115675965Y-110193917D01*
X115709462Y-110199025D01*
X115720328Y-110201663D01*
X115726612Y-110217569D01*
X115730720Y-110251026D01*
X115731641Y-110279527D01*
X115731641Y-110350400D01*
X115803282Y-110350400D01*
X115874923Y-110350400D01*
X115874923Y-110434353D01*
X115874923Y-110518306D01*
X115936795Y-110522276D01*
X115998667Y-110526246D01*
X116002573Y-110601143D01*
X116006480Y-110676041D01*
X116077471Y-110676041D01*
X116148462Y-110676041D01*
X116148462Y-111244440D01*
X116148462Y-111812838D01*
X116063795Y-111806042D01*
X115979128Y-111799246D01*
X115979128Y-111882413D01*
X115979128Y-111965579D01*
X115935504Y-111965579D01*
X115900763Y-111964468D01*
X115850584Y-111961545D01*
X115795467Y-111957427D01*
X115792222Y-111957155D01*
X115692564Y-111948731D01*
X115692564Y-111463503D01*
X115692564Y-110978275D01*
X115602022Y-110969182D01*
X115511479Y-110960089D01*
X115507586Y-110892962D01*
X115503692Y-110825836D01*
X115370180Y-110814672D01*
X115236667Y-110803509D01*
X115236667Y-110689028D01*
X115236667Y-110574547D01*
X115134599Y-110565512D01*
X115083671Y-110559814D01*
X115041668Y-110552946D01*
X115016384Y-110546231D01*
X115014112Y-110545081D01*
X115002870Y-110527279D01*
X114996964Y-110489247D01*
X114995692Y-110445299D01*
X114995692Y-110356913D01*
X114911026Y-110347306D01*
X114865373Y-110343070D01*
X114829611Y-110341477D01*
X114812576Y-110342682D01*
X114806417Y-110357635D01*
X114801297Y-110395935D01*
X114797473Y-110454887D01*
X114795391Y-110521439D01*
X114793813Y-110585809D01*
X114791878Y-110640105D01*
X114789807Y-110679383D01*
X114787823Y-110698701D01*
X114787399Y-110699804D01*
X114772592Y-110701337D01*
X114765507Y-110699987D01*
X114760378Y-110694194D01*
X114756436Y-110678082D01*
X114753591Y-110649150D01*
X114751751Y-110604902D01*
X114750826Y-110542837D01*
X114750723Y-110460457D01*
X114751353Y-110355264D01*
X114751663Y-110319776D01*
X114752812Y-110210074D01*
X114754117Y-110123801D01*
X114754974Y-110089292D01*
X114819846Y-110089292D01*
X114819846Y-110168041D01*
X114890422Y-110168041D01*
X114944402Y-110169276D01*
X114977461Y-110175746D01*
X114994707Y-110191593D01*
X115001247Y-110220961D01*
X115002205Y-110258730D01*
X115002205Y-110333607D01*
X115090128Y-110341911D01*
X115153615Y-110347917D01*
X115195547Y-110350233D01*
X115220373Y-110346770D01*
X115232540Y-110335436D01*
X115236496Y-110314143D01*
X115236688Y-110280799D01*
X115236667Y-110273044D01*
X115236667Y-110195688D01*
X115181308Y-110188218D01*
X115132589Y-110182492D01*
X115077563Y-110177188D01*
X115060821Y-110175834D01*
X114995692Y-110170920D01*
X114995692Y-110094583D01*
X114995692Y-110018246D01*
X114907769Y-110014394D01*
X114819846Y-110010543D01*
X114819846Y-110089292D01*
X114754974Y-110089292D01*
X114755742Y-110058337D01*
X114757851Y-110011058D01*
X114760607Y-109979345D01*
X114764175Y-109960574D01*
X114768717Y-109952124D01*
X114774399Y-109951374D01*
X114774670Y-109951474D01*
G37*
G36*
X114087409Y-108510125D02*
G01*
X114083897Y-108793836D01*
X113937359Y-108797519D01*
X113790821Y-108801202D01*
X113790821Y-108846365D01*
X113790928Y-108868177D01*
X113794567Y-108881858D01*
X113806716Y-108889535D01*
X113829897Y-108892970D01*
X113832353Y-108893334D01*
X113876454Y-108895383D01*
X113908051Y-108896453D01*
X113953641Y-108898041D01*
X113957529Y-108972333D01*
X113961418Y-109046625D01*
X114038308Y-109050301D01*
X114042196Y-109050487D01*
X114122974Y-109054348D01*
X114126881Y-109129246D01*
X114130787Y-109204143D01*
X114201778Y-109204143D01*
X114213532Y-109204143D01*
X114272769Y-109204143D01*
X114272769Y-109275163D01*
X114272769Y-109346182D01*
X114354180Y-109350060D01*
X114435590Y-109353938D01*
X114436576Y-109412554D01*
X114438777Y-109449238D01*
X114446924Y-109468031D01*
X114465771Y-109477063D01*
X114475653Y-109479397D01*
X114515846Y-109485541D01*
X114560767Y-109489104D01*
X114562590Y-109489166D01*
X114611436Y-109490707D01*
X114611436Y-109562348D01*
X114612143Y-109603313D01*
X114616479Y-109624637D01*
X114627762Y-109632726D01*
X114648548Y-109633990D01*
X114679739Y-109635084D01*
X114727085Y-109637967D01*
X114780798Y-109642035D01*
X114785317Y-109642414D01*
X114884974Y-109650838D01*
X114884974Y-109571263D01*
X114884974Y-109491688D01*
X114969641Y-109499594D01*
X115054308Y-109507500D01*
X115054308Y-109420950D01*
X115054308Y-109334400D01*
X115125949Y-109334400D01*
X115166101Y-109333008D01*
X115189388Y-109325273D01*
X115199627Y-109305854D01*
X115200635Y-109269409D01*
X115198099Y-109233451D01*
X115198620Y-109217753D01*
X115207163Y-109208965D01*
X115229381Y-109205096D01*
X115270931Y-109204155D01*
X115281324Y-109204143D01*
X115366923Y-109204143D01*
X115366923Y-109139015D01*
X115366923Y-109073887D01*
X115620923Y-109073887D01*
X115874923Y-109073887D01*
X115874923Y-109476288D01*
X115874862Y-109591769D01*
X115875039Y-109683840D01*
X115875997Y-109755144D01*
X115878276Y-109808321D01*
X115882417Y-109846012D01*
X115888963Y-109870857D01*
X115898454Y-109885498D01*
X115911432Y-109892575D01*
X115928438Y-109894729D01*
X115950014Y-109894601D01*
X115960655Y-109894502D01*
X116005180Y-109894502D01*
X116005180Y-109966143D01*
X116007501Y-110010859D01*
X116016926Y-110034426D01*
X116037145Y-110041523D01*
X116062410Y-110038703D01*
X116082685Y-110039696D01*
X116110633Y-110044571D01*
X116131523Y-110051159D01*
X116142997Y-110063853D01*
X116148521Y-110089678D01*
X116151095Y-110126606D01*
X116154974Y-110200605D01*
X116228512Y-110204471D01*
X116271581Y-110208703D01*
X116297942Y-110219394D01*
X116311678Y-110241860D01*
X116316876Y-110281419D01*
X116317617Y-110320442D01*
X116317795Y-110375151D01*
X116392692Y-110379057D01*
X116467590Y-110382964D01*
X116470941Y-111224830D01*
X116474292Y-112066697D01*
X116444889Y-112074575D01*
X116412914Y-112079686D01*
X116370525Y-112082473D01*
X116360128Y-112082632D01*
X116304769Y-112082810D01*
X116304769Y-112186444D01*
X116304769Y-112290079D01*
X116210333Y-112293906D01*
X116115897Y-112297733D01*
X116111978Y-112380761D01*
X116108058Y-112463789D01*
X116014285Y-112455155D01*
X115939886Y-112448096D01*
X115856979Y-112439882D01*
X115769831Y-112430973D01*
X115682712Y-112421829D01*
X115599888Y-112412910D01*
X115525628Y-112404676D01*
X115464200Y-112397587D01*
X115419871Y-112392103D01*
X115396909Y-112388684D01*
X115396231Y-112388538D01*
X115380334Y-112382536D01*
X115371511Y-112369408D01*
X115367721Y-112342814D01*
X115366923Y-112297485D01*
X115367914Y-112251302D01*
X115371894Y-112225575D01*
X115380377Y-112214751D01*
X115389924Y-112213066D01*
X115409343Y-112214567D01*
X115450409Y-112218760D01*
X115508908Y-112225180D01*
X115580627Y-112233361D01*
X115661353Y-112242837D01*
X115684756Y-112245631D01*
X115766824Y-112255364D01*
X115840666Y-112263937D01*
X115902169Y-112270886D01*
X115947221Y-112275750D01*
X115971710Y-112278066D01*
X115974370Y-112278195D01*
X115984630Y-112270664D01*
X115990279Y-112245448D01*
X115992143Y-112198610D01*
X115992154Y-112193528D01*
X115992154Y-112108861D01*
X116070308Y-112108861D01*
X116148462Y-112108861D01*
X116148462Y-112018332D01*
X116148462Y-111927802D01*
X116223359Y-111923896D01*
X116298256Y-111919990D01*
X116301821Y-111232887D01*
X116305386Y-110545784D01*
X116247527Y-110545784D01*
X116197366Y-110544136D01*
X116167798Y-110535634D01*
X116153413Y-110514941D01*
X116148798Y-110476721D01*
X116148462Y-110448108D01*
X116148462Y-110366244D01*
X116087183Y-110355048D01*
X116025905Y-110343853D01*
X116029534Y-110275485D01*
X116033162Y-110207118D01*
X115981159Y-110207118D01*
X115932784Y-110205115D01*
X115904833Y-110195467D01*
X115891772Y-110172712D01*
X115888064Y-110131386D01*
X115887949Y-110115140D01*
X115887949Y-110038975D01*
X115800026Y-110035123D01*
X115712103Y-110031272D01*
X115708133Y-109969400D01*
X115704105Y-109933267D01*
X115698320Y-109910866D01*
X115695107Y-109907307D01*
X115680040Y-109905819D01*
X115642980Y-109901780D01*
X115587813Y-109895626D01*
X115518424Y-109887791D01*
X115438700Y-109878709D01*
X115406000Y-109874964D01*
X115320500Y-109865382D01*
X115241169Y-109856910D01*
X115172580Y-109850004D01*
X115119307Y-109845120D01*
X115085922Y-109842713D01*
X115080359Y-109842541D01*
X115036166Y-109836286D01*
X114996549Y-109822308D01*
X114964924Y-109810434D01*
X114940913Y-109809084D01*
X114940222Y-109809326D01*
X114916864Y-109807014D01*
X114904368Y-109798526D01*
X114882554Y-109788607D01*
X114841077Y-109779466D01*
X114786320Y-109772457D01*
X114778336Y-109771754D01*
X114729455Y-109767424D01*
X114661315Y-109761034D01*
X114580569Y-109753226D01*
X114493870Y-109744642D01*
X114422632Y-109737437D01*
X114338788Y-109729301D01*
X114258008Y-109722252D01*
X114186156Y-109716744D01*
X114129094Y-109713228D01*
X114095400Y-109712143D01*
X114015586Y-109712143D01*
X114007128Y-109765036D01*
X114003513Y-109801217D01*
X114004884Y-109826482D01*
X114006304Y-109830281D01*
X114009017Y-109851690D01*
X114005707Y-109868568D01*
X113994503Y-109885635D01*
X113970393Y-109893223D01*
X113941255Y-109894502D01*
X113885035Y-109894502D01*
X113876283Y-109976224D01*
X113872967Y-110022936D01*
X113873217Y-110061483D01*
X113876159Y-110080429D01*
X113877948Y-110092848D01*
X113867812Y-110099652D01*
X113840650Y-110102458D01*
X113805240Y-110102913D01*
X113725692Y-110102913D01*
X113725692Y-110825836D01*
X113725692Y-111548759D01*
X113790821Y-111548759D01*
X113855949Y-111548759D01*
X113855949Y-111626065D01*
X113858383Y-111690578D01*
X113867055Y-111733278D01*
X113884023Y-111758063D01*
X113911344Y-111768832D01*
X113931971Y-111770195D01*
X113982587Y-111770195D01*
X113990066Y-111851605D01*
X113992491Y-111895690D01*
X113991331Y-111929097D01*
X113987550Y-111943201D01*
X113971011Y-111946710D01*
X113934705Y-111947826D01*
X113884812Y-111946490D01*
X113851624Y-111944535D01*
X113725692Y-111935683D01*
X113723464Y-111849682D01*
X113722109Y-111800983D01*
X113720798Y-111759843D01*
X113719926Y-111737631D01*
X113715648Y-111721631D01*
X113700392Y-111714937D01*
X113667281Y-111714986D01*
X113660282Y-111715422D01*
X113613021Y-111716093D01*
X113568610Y-111712959D01*
X113559788Y-111711607D01*
X113517627Y-111703951D01*
X113514198Y-110782944D01*
X113513634Y-110604980D01*
X113513210Y-110415191D01*
X113512927Y-110218362D01*
X113512784Y-110019279D01*
X113512783Y-109822728D01*
X113512923Y-109633492D01*
X113513205Y-109456357D01*
X113513382Y-109389459D01*
X113960154Y-109389459D01*
X113960154Y-109498699D01*
X113960154Y-109607938D01*
X113999231Y-109607938D01*
X114038308Y-109607938D01*
X114038308Y-109492963D01*
X114038308Y-109477682D01*
X114154295Y-109477682D01*
X114158173Y-109559092D01*
X114162051Y-109640502D01*
X114217410Y-109644508D01*
X114272769Y-109648513D01*
X114272769Y-109563097D01*
X114272769Y-109477682D01*
X114213532Y-109477682D01*
X114154295Y-109477682D01*
X114038308Y-109477682D01*
X114038308Y-109377989D01*
X113999231Y-109383724D01*
X113960154Y-109389459D01*
X113513382Y-109389459D01*
X113513628Y-109296108D01*
X113514139Y-109168323D01*
X113514446Y-109105031D01*
X113725692Y-109105031D01*
X113725692Y-109224693D01*
X113725692Y-109344354D01*
X113777795Y-109345073D01*
X113829897Y-109345793D01*
X113829897Y-109222338D01*
X113829897Y-109098883D01*
X113777795Y-109101957D01*
X113725692Y-109105031D01*
X113514446Y-109105031D01*
X113517508Y-108474707D01*
X113576011Y-108474707D01*
X113634513Y-108474707D01*
X113634513Y-108585425D01*
X113634513Y-108696143D01*
X113702897Y-108696156D01*
X113771282Y-108696169D01*
X113771282Y-108464951D01*
X113771282Y-108233733D01*
X113931101Y-108230074D01*
X114090921Y-108226414D01*
X114087409Y-108510125D01*
G37*
G36*
X115143133Y-112458188D02*
G01*
X115197875Y-112463261D01*
X115265852Y-112470369D01*
X115342872Y-112479019D01*
X115424741Y-112488723D01*
X115507266Y-112498990D01*
X115586255Y-112509330D01*
X115657514Y-112519253D01*
X115716850Y-112528268D01*
X115738713Y-112531928D01*
X115790817Y-112540803D01*
X115833146Y-112547622D01*
X115859140Y-112551344D01*
X115863604Y-112551733D01*
X115864612Y-112564595D01*
X115865592Y-112602524D01*
X115866542Y-112664536D01*
X115867457Y-112749648D01*
X115868335Y-112856876D01*
X115869172Y-112985235D01*
X115869966Y-113133743D01*
X115870713Y-113301414D01*
X115871410Y-113487265D01*
X115872053Y-113690312D01*
X115872640Y-113909572D01*
X115873167Y-114144060D01*
X115873632Y-114392792D01*
X115874030Y-114654785D01*
X115874359Y-114929054D01*
X115874616Y-115214616D01*
X115874797Y-115510487D01*
X115874900Y-115815683D01*
X115874923Y-116049118D01*
X115874923Y-119546502D01*
X115835846Y-119546502D01*
X115796769Y-119546502D01*
X115796769Y-119637682D01*
X115796769Y-119728861D01*
X115704561Y-119728861D01*
X115612352Y-119728861D01*
X115616638Y-119631139D01*
X115620923Y-119533416D01*
X115487410Y-119533446D01*
X115353897Y-119533477D01*
X115353897Y-119721635D01*
X115353897Y-119909793D01*
X115415769Y-119913763D01*
X115477641Y-119917733D01*
X115481556Y-119985487D01*
X115485472Y-120053242D01*
X115486085Y-120053274D01*
X115559710Y-120057128D01*
X115633949Y-120061015D01*
X115637886Y-120129400D01*
X115641823Y-120197784D01*
X115722553Y-120197802D01*
X115726536Y-120197803D01*
X115803282Y-120197820D01*
X115799109Y-119995905D01*
X115794935Y-119793990D01*
X115887032Y-119793990D01*
X115979128Y-119793990D01*
X115979128Y-120301990D01*
X115979128Y-120809990D01*
X115927026Y-120811618D01*
X115890557Y-120813425D01*
X115865194Y-120815874D01*
X115861897Y-120816502D01*
X115837465Y-120820592D01*
X115829822Y-120821387D01*
X115820293Y-120827860D01*
X115813818Y-120848110D01*
X115809623Y-120886282D01*
X115807027Y-120943502D01*
X115803282Y-121063990D01*
X115728385Y-121067896D01*
X115653487Y-121071802D01*
X115653487Y-121149306D01*
X115652923Y-121192344D01*
X115649243Y-121215495D01*
X115639470Y-121224926D01*
X115620624Y-121226799D01*
X115616038Y-121226810D01*
X115574439Y-121229543D01*
X115537885Y-121234951D01*
X115514377Y-121241138D01*
X115502281Y-121252354D01*
X115497811Y-121275868D01*
X115497180Y-121313105D01*
X115497180Y-121383118D01*
X115412513Y-121383118D01*
X115327846Y-121383118D01*
X115327846Y-121467784D01*
X115326841Y-121514119D01*
X115322832Y-121539983D01*
X115314334Y-121550910D01*
X115305051Y-121552635D01*
X115264842Y-121553518D01*
X115210787Y-121555465D01*
X115148561Y-121558180D01*
X115083839Y-121561368D01*
X115022297Y-121564735D01*
X114969609Y-121567984D01*
X114931451Y-121570822D01*
X114913496Y-121572953D01*
X114913346Y-121572998D01*
X114902612Y-121586834D01*
X114899386Y-121621219D01*
X114900320Y-121645626D01*
X114904513Y-121712849D01*
X114598410Y-121714060D01*
X114292308Y-121715272D01*
X114288401Y-121640374D01*
X114284495Y-121565477D01*
X114180940Y-121565477D01*
X114077385Y-121565477D01*
X114077385Y-121475011D01*
X114077385Y-121384545D01*
X114015513Y-121380575D01*
X113953641Y-121376605D01*
X113953118Y-121304964D01*
X113952430Y-121253021D01*
X113951723Y-121217697D01*
X114155343Y-121217697D01*
X114156570Y-121280511D01*
X114158904Y-121340974D01*
X114162220Y-121393560D01*
X114166398Y-121432745D01*
X114171315Y-121453005D01*
X114172854Y-121454549D01*
X114195092Y-121459668D01*
X114230144Y-121466209D01*
X114236949Y-121467360D01*
X114285795Y-121475478D01*
X114285795Y-121331605D01*
X114285795Y-121187733D01*
X114448615Y-121187733D01*
X114611436Y-121187733D01*
X114611436Y-121271686D01*
X114611436Y-121355639D01*
X114673308Y-121359609D01*
X114735180Y-121363579D01*
X114739057Y-121444990D01*
X114742935Y-121526400D01*
X114540416Y-121526400D01*
X114462385Y-121526737D01*
X114406834Y-121527976D01*
X114370201Y-121530463D01*
X114348923Y-121534540D01*
X114339434Y-121540552D01*
X114337897Y-121545938D01*
X114341020Y-121552534D01*
X114352459Y-121557491D01*
X114375320Y-121561032D01*
X114412709Y-121563377D01*
X114467734Y-121564749D01*
X114543500Y-121565370D01*
X114611436Y-121565477D01*
X114884974Y-121565477D01*
X114884974Y-121317990D01*
X114884974Y-121252861D01*
X115041282Y-121252861D01*
X115041282Y-121317990D01*
X115041282Y-121383118D01*
X115179571Y-121383118D01*
X115240765Y-121382930D01*
X115280258Y-121381714D01*
X115302400Y-121378494D01*
X115311541Y-121372291D01*
X115312031Y-121362128D01*
X115310005Y-121353810D01*
X115303800Y-121317373D01*
X115301973Y-121288682D01*
X115301795Y-121252861D01*
X115171538Y-121252861D01*
X115041282Y-121252861D01*
X114884974Y-121252861D01*
X114884974Y-121090913D01*
X115350529Y-121090913D01*
X115350637Y-121123302D01*
X115351898Y-121147564D01*
X115356412Y-121213784D01*
X115420283Y-121213784D01*
X115458353Y-121212961D01*
X115477183Y-121207490D01*
X115483584Y-121192870D01*
X115484332Y-121171451D01*
X115486931Y-121131487D01*
X115492364Y-121099810D01*
X115495049Y-121083010D01*
X115487710Y-121074274D01*
X115464702Y-121070980D01*
X115429229Y-121070502D01*
X115388983Y-121071417D01*
X115360849Y-121073769D01*
X115352812Y-121075923D01*
X115350529Y-121090913D01*
X114884974Y-121090913D01*
X114884974Y-121070502D01*
X114819846Y-121070502D01*
X114754718Y-121070502D01*
X114754718Y-120985836D01*
X114754718Y-120901169D01*
X114533282Y-120901169D01*
X114311846Y-120901169D01*
X114311846Y-120972810D01*
X114311846Y-121044451D01*
X114242376Y-121044451D01*
X114201775Y-121046010D01*
X114172575Y-121050008D01*
X114163950Y-121053407D01*
X114159526Y-121070385D01*
X114156698Y-121107109D01*
X114155345Y-121158054D01*
X114155343Y-121217697D01*
X113951723Y-121217697D01*
X113951170Y-121190053D01*
X113949861Y-121138887D01*
X113947128Y-121044451D01*
X113888513Y-121044451D01*
X113829897Y-121044451D01*
X113829897Y-121116092D01*
X113829897Y-121187733D01*
X113758256Y-121187733D01*
X113686615Y-121187733D01*
X113686615Y-121032212D01*
X113686615Y-120876690D01*
X113641155Y-120872648D01*
X113595695Y-120868605D01*
X113593149Y-120705784D01*
X113711424Y-120705784D01*
X113715302Y-120787195D01*
X113719180Y-120868605D01*
X113774538Y-120872610D01*
X113829897Y-120876616D01*
X113829897Y-120809990D01*
X115497180Y-120809990D01*
X115497180Y-120935361D01*
X115497180Y-121060733D01*
X115537885Y-121052592D01*
X115577785Y-121046612D01*
X115609526Y-121044451D01*
X115624250Y-121043305D01*
X115633358Y-121036506D01*
X115638197Y-121019010D01*
X115640116Y-120985778D01*
X115640461Y-120931765D01*
X115640462Y-120928739D01*
X115641266Y-120869362D01*
X115646264Y-120831282D01*
X115659338Y-120809748D01*
X115684366Y-120800010D01*
X115725229Y-120797316D01*
X115747923Y-120797142D01*
X115779444Y-120794721D01*
X115796280Y-120788942D01*
X115797130Y-120787195D01*
X115797695Y-120771484D01*
X115799025Y-120734331D01*
X115800956Y-120680327D01*
X115803325Y-120614064D01*
X115805050Y-120565759D01*
X115812610Y-120354092D01*
X115726536Y-120354092D01*
X115640462Y-120354092D01*
X115640462Y-120582041D01*
X115640462Y-120809990D01*
X115568821Y-120809990D01*
X115497180Y-120809990D01*
X113829897Y-120809990D01*
X113829897Y-120791200D01*
X113829897Y-120705784D01*
X113770661Y-120705784D01*
X113711424Y-120705784D01*
X113593149Y-120705784D01*
X113591164Y-120578844D01*
X113590964Y-120562502D01*
X114181590Y-120562502D01*
X114181590Y-120640656D01*
X114181590Y-120718810D01*
X114403026Y-120718810D01*
X114624462Y-120718810D01*
X114624462Y-120640656D01*
X114624462Y-120562502D01*
X114403026Y-120562502D01*
X114181590Y-120562502D01*
X113590964Y-120562502D01*
X113590135Y-120494635D01*
X113589764Y-120419458D01*
X113589765Y-120419220D01*
X113712667Y-120419220D01*
X113712667Y-120484348D01*
X113712667Y-120549477D01*
X113770661Y-120549477D01*
X113947128Y-120549477D01*
X114181590Y-120549477D01*
X114181590Y-120484348D01*
X114181590Y-120419220D01*
X113947128Y-120419220D01*
X113712667Y-120419220D01*
X113589765Y-120419220D01*
X113590025Y-120357123D01*
X113590892Y-120311437D01*
X113592339Y-120286210D01*
X113593206Y-120282510D01*
X113608337Y-120279575D01*
X113643195Y-120277315D01*
X113691459Y-120276074D01*
X113714838Y-120275938D01*
X113829897Y-120275938D01*
X113829897Y-120067528D01*
X114884974Y-120067528D01*
X114884974Y-120132656D01*
X114884974Y-120197784D01*
X115034769Y-120197784D01*
X115184564Y-120197784D01*
X115184564Y-120132656D01*
X115184564Y-120067528D01*
X115034769Y-120067528D01*
X114884974Y-120067528D01*
X113829897Y-120067528D01*
X113829897Y-119989374D01*
X114611436Y-119989374D01*
X114611436Y-120054502D01*
X114683077Y-120054502D01*
X115353897Y-120054502D01*
X115353897Y-120126143D01*
X115353897Y-120197784D01*
X115419026Y-120197784D01*
X115429229Y-120197784D01*
X115484154Y-120197784D01*
X115484154Y-120266211D01*
X115484154Y-120334638D01*
X115559051Y-120334596D01*
X115633949Y-120334554D01*
X115637864Y-120266808D01*
X115641779Y-120199062D01*
X115560256Y-120195167D01*
X115478734Y-120191272D01*
X115482409Y-120122887D01*
X115486085Y-120054502D01*
X115419991Y-120054502D01*
X115353897Y-120054502D01*
X114683077Y-120054502D01*
X114724059Y-120053754D01*
X114745411Y-120049376D01*
X114753553Y-120038166D01*
X114754718Y-120021264D01*
X114754896Y-120018682D01*
X114758002Y-119979616D01*
X114762928Y-119953554D01*
X114765633Y-119937456D01*
X114759144Y-119928683D01*
X114738035Y-119925018D01*
X114696881Y-119924249D01*
X114691109Y-119924246D01*
X114611436Y-119924246D01*
X114611436Y-119989374D01*
X113829897Y-119989374D01*
X113829897Y-119891682D01*
X113829897Y-119650707D01*
X114324872Y-119650707D01*
X114324872Y-119722348D01*
X114324872Y-119793990D01*
X114390000Y-119793990D01*
X114403026Y-119793990D01*
X114455128Y-119793990D01*
X114455128Y-119859118D01*
X114455128Y-119924246D01*
X114533282Y-119924246D01*
X114611436Y-119924246D01*
X114611436Y-119859118D01*
X114611436Y-119793990D01*
X114533282Y-119793990D01*
X114455128Y-119793990D01*
X114455128Y-119722348D01*
X114455128Y-119650707D01*
X114533282Y-119650707D01*
X114611436Y-119650707D01*
X114611436Y-119585579D01*
X114611436Y-119533477D01*
X114767744Y-119533477D01*
X114767744Y-119722348D01*
X114767744Y-119911220D01*
X114976154Y-119911220D01*
X115034769Y-119911220D01*
X115184564Y-119911220D01*
X115184564Y-119722348D01*
X115184564Y-119533477D01*
X114976154Y-119533477D01*
X114767744Y-119533477D01*
X114611436Y-119533477D01*
X114611436Y-119520451D01*
X114689342Y-119520451D01*
X114733143Y-119519498D01*
X114757674Y-119515009D01*
X114769690Y-119504541D01*
X114775025Y-119489461D01*
X114779448Y-119452333D01*
X114778530Y-119421076D01*
X114774767Y-119400601D01*
X114766159Y-119390195D01*
X115627436Y-119390195D01*
X115627436Y-119455323D01*
X115627436Y-119520451D01*
X115678473Y-119520451D01*
X115717061Y-119522405D01*
X115746615Y-119527219D01*
X115750114Y-119528357D01*
X115761952Y-119528940D01*
X115768233Y-119515710D01*
X115770546Y-119483636D01*
X115770718Y-119463229D01*
X115770718Y-119390195D01*
X115699077Y-119390195D01*
X115627436Y-119390195D01*
X114766159Y-119390195D01*
X114765184Y-119389016D01*
X114743448Y-119383268D01*
X114703225Y-119380309D01*
X114692846Y-119379804D01*
X114611436Y-119375926D01*
X114611436Y-119448188D01*
X114611436Y-119520451D01*
X114533282Y-119520451D01*
X114455128Y-119520451D01*
X114455128Y-119585579D01*
X114455128Y-119650707D01*
X114390000Y-119650707D01*
X114324872Y-119650707D01*
X113829897Y-119650707D01*
X113829897Y-119507425D01*
X113758256Y-119507425D01*
X113686615Y-119507425D01*
X113686615Y-119358311D01*
X113686615Y-119220861D01*
X113816872Y-119220861D01*
X113816872Y-119279477D01*
X113816872Y-119338092D01*
X113880688Y-119338092D01*
X113944505Y-119338092D01*
X113947128Y-119305113D01*
X113949167Y-119279477D01*
X113953829Y-119220861D01*
X114927640Y-119220861D01*
X114929180Y-119282733D01*
X114930721Y-119344605D01*
X114976154Y-119344605D01*
X115119514Y-119344605D01*
X115301795Y-119344605D01*
X115308308Y-119344605D01*
X115312278Y-119282733D01*
X115313198Y-119268391D01*
X115481128Y-119268391D01*
X115482054Y-119297334D01*
X115486468Y-119377169D01*
X115550439Y-119377169D01*
X115614410Y-119377169D01*
X115614410Y-119305528D01*
X115614962Y-119264104D01*
X115616381Y-119233834D01*
X115617667Y-119224118D01*
X115608323Y-119217835D01*
X115582038Y-119212567D01*
X115547921Y-119209205D01*
X115515080Y-119208644D01*
X115492624Y-119211774D01*
X115492433Y-119211846D01*
X115483892Y-119228530D01*
X115481128Y-119268391D01*
X115313198Y-119268391D01*
X115316248Y-119220861D01*
X115121944Y-119220861D01*
X114927640Y-119220861D01*
X113953829Y-119220861D01*
X113885350Y-119220861D01*
X113816872Y-119220861D01*
X113686615Y-119220861D01*
X113686615Y-119209197D01*
X113755000Y-119205260D01*
X113823385Y-119201323D01*
X113826734Y-119143156D01*
X113979118Y-119143156D01*
X113979237Y-119171985D01*
X113980567Y-119190938D01*
X113987832Y-119201644D01*
X114006848Y-119206462D01*
X114043435Y-119207750D01*
X114067615Y-119207806D01*
X114155538Y-119207836D01*
X114155538Y-119142707D01*
X114155538Y-119077579D01*
X114071778Y-119077579D01*
X114023485Y-119078892D01*
X113995586Y-119086544D01*
X113982617Y-119106107D01*
X113979118Y-119143156D01*
X113826734Y-119143156D01*
X113827322Y-119132938D01*
X113831259Y-119064554D01*
X113885350Y-119064554D01*
X113888128Y-119064554D01*
X113936075Y-119063006D01*
X113963250Y-119055303D01*
X113974885Y-119036854D01*
X113976212Y-119003070D01*
X113975301Y-118988082D01*
X113974938Y-118951251D01*
X113980847Y-118934297D01*
X114181590Y-118934297D01*
X114181590Y-118999425D01*
X114181590Y-119064554D01*
X114468154Y-119064554D01*
X114611436Y-119064554D01*
X114754718Y-119064554D01*
X114754718Y-118999425D01*
X114754718Y-118934297D01*
X114468154Y-118934297D01*
X114181590Y-118934297D01*
X113980847Y-118934297D01*
X113983069Y-118927921D01*
X114004231Y-118915039D01*
X114042959Y-118909553D01*
X114071778Y-118908911D01*
X114093667Y-118908424D01*
X114155538Y-118908246D01*
X114155538Y-118829852D01*
X114155538Y-118751458D01*
X114458385Y-118754955D01*
X114468154Y-118755068D01*
X114761231Y-118758451D01*
X114765137Y-118833348D01*
X114769044Y-118908246D01*
X114976804Y-118908246D01*
X115121944Y-118908246D01*
X115184564Y-118908246D01*
X115184564Y-118992913D01*
X115184564Y-119077579D01*
X115256205Y-119077579D01*
X115327846Y-119077579D01*
X115327846Y-119149220D01*
X115327846Y-119220861D01*
X115392974Y-119220861D01*
X115458103Y-119220861D01*
X115458103Y-119142707D01*
X115458103Y-119064554D01*
X115402744Y-119064583D01*
X115347385Y-119064611D01*
X115353897Y-118944095D01*
X115360410Y-118823579D01*
X115461359Y-118819775D01*
X115515080Y-118817751D01*
X115562308Y-118815971D01*
X115562308Y-118745473D01*
X115562308Y-118674975D01*
X115650231Y-118671123D01*
X115699077Y-118668984D01*
X115738154Y-118667272D01*
X115737223Y-118605400D01*
X115736973Y-118579395D01*
X115736639Y-118530382D01*
X115736237Y-118461403D01*
X115735782Y-118375502D01*
X115735290Y-118275721D01*
X115734777Y-118165104D01*
X115734259Y-118046692D01*
X115733967Y-117976913D01*
X115731641Y-117410297D01*
X115666513Y-117410297D01*
X115601385Y-117410297D01*
X115601385Y-117286554D01*
X115601385Y-117162810D01*
X115665101Y-117162810D01*
X115704192Y-117161230D01*
X115724677Y-117154447D01*
X115733914Y-117139394D01*
X115735436Y-117133502D01*
X115737004Y-117113217D01*
X115738141Y-117070501D01*
X115738826Y-117008975D01*
X115739037Y-116932257D01*
X115738754Y-116843965D01*
X115737954Y-116747719D01*
X115737790Y-116732964D01*
X115736591Y-116624278D01*
X115735448Y-116512520D01*
X115734417Y-116403725D01*
X115733551Y-116303927D01*
X115732908Y-116219160D01*
X115732583Y-116164770D01*
X115731641Y-115967807D01*
X115666513Y-115959168D01*
X115601385Y-115950528D01*
X115601385Y-115833746D01*
X115601385Y-115716964D01*
X115674419Y-115716964D01*
X115715954Y-115715847D01*
X115736522Y-115711434D01*
X115741155Y-115702136D01*
X115739547Y-115696360D01*
X115737986Y-115679589D01*
X115736526Y-115639354D01*
X115735200Y-115578243D01*
X115734037Y-115498844D01*
X115733070Y-115403744D01*
X115732328Y-115295532D01*
X115731842Y-115176794D01*
X115731644Y-115050118D01*
X115731641Y-115032052D01*
X115731641Y-114388348D01*
X115666513Y-114388348D01*
X115601385Y-114388348D01*
X115601385Y-114284143D01*
X115601385Y-114179938D01*
X115666513Y-114179938D01*
X115731641Y-114179938D01*
X115731641Y-113697990D01*
X115731641Y-113216041D01*
X115680604Y-113216041D01*
X115632458Y-113213891D01*
X115604719Y-113204086D01*
X115591874Y-113181594D01*
X115588411Y-113141384D01*
X115588359Y-113131836D01*
X115588359Y-113063444D01*
X115509097Y-113055160D01*
X115465155Y-113049626D01*
X115431653Y-113043680D01*
X115417918Y-113039510D01*
X115410921Y-113023201D01*
X115406635Y-112990113D01*
X115406000Y-112969640D01*
X115406000Y-112907137D01*
X115326738Y-112898852D01*
X115282479Y-112893164D01*
X115248362Y-112886842D01*
X115234085Y-112882291D01*
X115227243Y-112865103D01*
X115225214Y-112829647D01*
X115226495Y-112804054D01*
X115232297Y-112734092D01*
X115185636Y-112733914D01*
X115139694Y-112732924D01*
X115109544Y-112727344D01*
X115091861Y-112712627D01*
X115083319Y-112684230D01*
X115080590Y-112637608D01*
X115080359Y-112590060D01*
X115081292Y-112535076D01*
X115083803Y-112490625D01*
X115087460Y-112462620D01*
X115090128Y-112456103D01*
X115105820Y-112455639D01*
X115143133Y-112458188D01*
G37*
%TD*%
%LPC*%
D12*
%TO.C,J2*%
X119050000Y-157200000D03*
D13*
X119050000Y-156400000D03*
X119050000Y-155600000D03*
X119050000Y-154800000D03*
X119050000Y-154000000D03*
X119050000Y-153200000D03*
X119050000Y-152400000D03*
X119050000Y-151600000D03*
X119050000Y-150800000D03*
X119050000Y-150000000D03*
X119050000Y-149200000D03*
X119050000Y-148400000D03*
X119050000Y-147600000D03*
X119050000Y-146800000D03*
X119050000Y-146000000D03*
X119050000Y-145200000D03*
X119050000Y-144400000D03*
X119050000Y-143600000D03*
X119050000Y-142800000D03*
X119050000Y-142000000D03*
X119050000Y-141200000D03*
X119050000Y-140400000D03*
X109550000Y-140400000D03*
X109550000Y-141200000D03*
X109550000Y-142000000D03*
X109550000Y-142800000D03*
X109550000Y-143600000D03*
X109550000Y-144400000D03*
X109550000Y-145200000D03*
X109550000Y-146000000D03*
X109550000Y-146800000D03*
X109550000Y-147600000D03*
X109550000Y-148400000D03*
X109550000Y-149200000D03*
X109550000Y-150000000D03*
X109550000Y-150800000D03*
X109550000Y-151600000D03*
X109550000Y-152400000D03*
X109550000Y-153200000D03*
X109550000Y-154000000D03*
X109550000Y-154800000D03*
X109550000Y-155600000D03*
X109550000Y-156400000D03*
X109550000Y-157200000D03*
%TD*%
%LPD*%
M02*
