%TF.GenerationSoftware,KiCad,Pcbnew,9.0.9*%
%TF.CreationDate,2026-07-21T23:55:24-05:00*%
%TF.ProjectId,FPCB_SOP44_to_TSOPII44_REV_D2_EDGE_PADS_TOP_10MM,46504342-5f53-44f5-9034-345f746f5f54,rev?*%
%TF.SameCoordinates,Original*%
%TF.FileFunction,Legend,Bot*%
%TF.FilePolarity,Positive*%
%FSLAX46Y46*%
G04 Gerber Fmt 4.6, Leading zero omitted, Abs format (unit mm)*
G04 Created by KiCad (PCBNEW 9.0.9) date 2026-07-21 23:55:24*
%MOMM*%
%LPD*%
G01*
G04 APERTURE LIST*
G04 Aperture macros list*
%AMRoundRect*
0 Rectangle with rounded corners*
0 $1 Rounding radius*
0 $2 $3 $4 $5 $6 $7 $8 $9 X,Y pos of 4 corners*
0 Add a 4 corners polygon primitive as box body*
4,1,4,$2,$3,$4,$5,$6,$7,$8,$9,$2,$3,0*
0 Add four circle primitives for the rounded corners*
1,1,$1+$1,$2,$3*
1,1,$1+$1,$4,$5*
1,1,$1+$1,$6,$7*
1,1,$1+$1,$8,$9*
0 Add four rect primitives between the rounded corners*
20,1,$1+$1,$2,$3,$4,$5,0*
20,1,$1+$1,$4,$5,$6,$7,0*
20,1,$1+$1,$6,$7,$8,$9,0*
20,1,$1+$1,$8,$9,$2,$3,0*%
G04 Aperture macros list end*
%ADD10C,0.130000*%
%ADD11C,0.087500*%
%ADD12C,0.200000*%
%ADD13C,0.180000*%
%ADD14RoundRect,0.130000X0.970000X-0.195000X0.970000X0.195000X-0.970000X0.195000X-0.970000X-0.195000X0*%
%ADD15R,2.200000X0.650000*%
G04 APERTURE END LIST*
D10*
X113886467Y-101469046D02*
X113036467Y-101469046D01*
X113036467Y-101469046D02*
X113643610Y-101752380D01*
X113643610Y-101752380D02*
X113036467Y-102035713D01*
X113036467Y-102035713D02*
X113886467Y-102035713D01*
X113036467Y-102359523D02*
X113886467Y-102926190D01*
X113036467Y-102926190D02*
X113886467Y-102359523D01*
X113117419Y-103209523D02*
X113076943Y-103249999D01*
X113076943Y-103249999D02*
X113036467Y-103330952D01*
X113036467Y-103330952D02*
X113036467Y-103533333D01*
X113036467Y-103533333D02*
X113076943Y-103614285D01*
X113076943Y-103614285D02*
X113117419Y-103654761D01*
X113117419Y-103654761D02*
X113198371Y-103695238D01*
X113198371Y-103695238D02*
X113279324Y-103695238D01*
X113279324Y-103695238D02*
X113400752Y-103654761D01*
X113400752Y-103654761D02*
X113886467Y-103169047D01*
X113886467Y-103169047D02*
X113886467Y-103695238D01*
X113036467Y-104423809D02*
X113036467Y-104261904D01*
X113036467Y-104261904D02*
X113076943Y-104180952D01*
X113076943Y-104180952D02*
X113117419Y-104140476D01*
X113117419Y-104140476D02*
X113238848Y-104059523D01*
X113238848Y-104059523D02*
X113400752Y-104019047D01*
X113400752Y-104019047D02*
X113724562Y-104019047D01*
X113724562Y-104019047D02*
X113805514Y-104059523D01*
X113805514Y-104059523D02*
X113845991Y-104100000D01*
X113845991Y-104100000D02*
X113886467Y-104180952D01*
X113886467Y-104180952D02*
X113886467Y-104342857D01*
X113886467Y-104342857D02*
X113845991Y-104423809D01*
X113845991Y-104423809D02*
X113805514Y-104464285D01*
X113805514Y-104464285D02*
X113724562Y-104504762D01*
X113724562Y-104504762D02*
X113522181Y-104504762D01*
X113522181Y-104504762D02*
X113441229Y-104464285D01*
X113441229Y-104464285D02*
X113400752Y-104423809D01*
X113400752Y-104423809D02*
X113360276Y-104342857D01*
X113360276Y-104342857D02*
X113360276Y-104180952D01*
X113360276Y-104180952D02*
X113400752Y-104100000D01*
X113400752Y-104100000D02*
X113441229Y-104059523D01*
X113441229Y-104059523D02*
X113522181Y-104019047D01*
X113886467Y-105273809D02*
X113886467Y-104869047D01*
X113886467Y-104869047D02*
X113036467Y-104869047D01*
X113036467Y-105921428D02*
X113036467Y-105759523D01*
X113036467Y-105759523D02*
X113076943Y-105678571D01*
X113076943Y-105678571D02*
X113117419Y-105638095D01*
X113117419Y-105638095D02*
X113238848Y-105557142D01*
X113238848Y-105557142D02*
X113400752Y-105516666D01*
X113400752Y-105516666D02*
X113724562Y-105516666D01*
X113724562Y-105516666D02*
X113805514Y-105557142D01*
X113805514Y-105557142D02*
X113845991Y-105597619D01*
X113845991Y-105597619D02*
X113886467Y-105678571D01*
X113886467Y-105678571D02*
X113886467Y-105840476D01*
X113886467Y-105840476D02*
X113845991Y-105921428D01*
X113845991Y-105921428D02*
X113805514Y-105961904D01*
X113805514Y-105961904D02*
X113724562Y-106002381D01*
X113724562Y-106002381D02*
X113522181Y-106002381D01*
X113522181Y-106002381D02*
X113441229Y-105961904D01*
X113441229Y-105961904D02*
X113400752Y-105921428D01*
X113400752Y-105921428D02*
X113360276Y-105840476D01*
X113360276Y-105840476D02*
X113360276Y-105678571D01*
X113360276Y-105678571D02*
X113400752Y-105597619D01*
X113400752Y-105597619D02*
X113441229Y-105557142D01*
X113441229Y-105557142D02*
X113522181Y-105516666D01*
X113319800Y-106730952D02*
X113886467Y-106730952D01*
X112995991Y-106528571D02*
X113603133Y-106326190D01*
X113603133Y-106326190D02*
X113603133Y-106852381D01*
X113562657Y-107176190D02*
X113562657Y-107823810D01*
X113886467Y-108228571D02*
X113036467Y-108228571D01*
X113036467Y-108228571D02*
X113643610Y-108511905D01*
X113643610Y-108511905D02*
X113036467Y-108795238D01*
X113036467Y-108795238D02*
X113886467Y-108795238D01*
X113036467Y-109119048D02*
X113886467Y-109685715D01*
X113036467Y-109685715D02*
X113886467Y-109119048D01*
X113117419Y-109969048D02*
X113076943Y-110009524D01*
X113076943Y-110009524D02*
X113036467Y-110090477D01*
X113036467Y-110090477D02*
X113036467Y-110292858D01*
X113036467Y-110292858D02*
X113076943Y-110373810D01*
X113076943Y-110373810D02*
X113117419Y-110414286D01*
X113117419Y-110414286D02*
X113198371Y-110454763D01*
X113198371Y-110454763D02*
X113279324Y-110454763D01*
X113279324Y-110454763D02*
X113400752Y-110414286D01*
X113400752Y-110414286D02*
X113886467Y-109928572D01*
X113886467Y-109928572D02*
X113886467Y-110454763D01*
X113886467Y-110859525D02*
X113886467Y-111021429D01*
X113886467Y-111021429D02*
X113845991Y-111102382D01*
X113845991Y-111102382D02*
X113805514Y-111142858D01*
X113805514Y-111142858D02*
X113684086Y-111223810D01*
X113684086Y-111223810D02*
X113522181Y-111264287D01*
X113522181Y-111264287D02*
X113198371Y-111264287D01*
X113198371Y-111264287D02*
X113117419Y-111223810D01*
X113117419Y-111223810D02*
X113076943Y-111183334D01*
X113076943Y-111183334D02*
X113036467Y-111102382D01*
X113036467Y-111102382D02*
X113036467Y-110940477D01*
X113036467Y-110940477D02*
X113076943Y-110859525D01*
X113076943Y-110859525D02*
X113117419Y-110819048D01*
X113117419Y-110819048D02*
X113198371Y-110778572D01*
X113198371Y-110778572D02*
X113400752Y-110778572D01*
X113400752Y-110778572D02*
X113481705Y-110819048D01*
X113481705Y-110819048D02*
X113522181Y-110859525D01*
X113522181Y-110859525D02*
X113562657Y-110940477D01*
X113562657Y-110940477D02*
X113562657Y-111102382D01*
X113562657Y-111102382D02*
X113522181Y-111183334D01*
X113522181Y-111183334D02*
X113481705Y-111223810D01*
X113481705Y-111223810D02*
X113400752Y-111264287D01*
X113886467Y-112033334D02*
X113886467Y-111628572D01*
X113886467Y-111628572D02*
X113036467Y-111628572D01*
X113036467Y-112235715D02*
X113036467Y-112761906D01*
X113036467Y-112761906D02*
X113360276Y-112478572D01*
X113360276Y-112478572D02*
X113360276Y-112600001D01*
X113360276Y-112600001D02*
X113400752Y-112680953D01*
X113400752Y-112680953D02*
X113441229Y-112721429D01*
X113441229Y-112721429D02*
X113522181Y-112761906D01*
X113522181Y-112761906D02*
X113724562Y-112761906D01*
X113724562Y-112761906D02*
X113805514Y-112721429D01*
X113805514Y-112721429D02*
X113845991Y-112680953D01*
X113845991Y-112680953D02*
X113886467Y-112600001D01*
X113886467Y-112600001D02*
X113886467Y-112357144D01*
X113886467Y-112357144D02*
X113845991Y-112276191D01*
X113845991Y-112276191D02*
X113805514Y-112235715D01*
X113117419Y-113085715D02*
X113076943Y-113126191D01*
X113076943Y-113126191D02*
X113036467Y-113207144D01*
X113036467Y-113207144D02*
X113036467Y-113409525D01*
X113036467Y-113409525D02*
X113076943Y-113490477D01*
X113076943Y-113490477D02*
X113117419Y-113530953D01*
X113117419Y-113530953D02*
X113198371Y-113571430D01*
X113198371Y-113571430D02*
X113279324Y-113571430D01*
X113279324Y-113571430D02*
X113400752Y-113530953D01*
X113400752Y-113530953D02*
X113886467Y-113045239D01*
X113886467Y-113045239D02*
X113886467Y-113571430D01*
D11*
X109533333Y-127185950D02*
X109500000Y-127152616D01*
X109500000Y-127152616D02*
X109433333Y-127119283D01*
X109433333Y-127119283D02*
X109266667Y-127119283D01*
X109266667Y-127119283D02*
X109200000Y-127152616D01*
X109200000Y-127152616D02*
X109166667Y-127185950D01*
X109166667Y-127185950D02*
X109133333Y-127252616D01*
X109133333Y-127252616D02*
X109133333Y-127319283D01*
X109133333Y-127319283D02*
X109166667Y-127419283D01*
X109166667Y-127419283D02*
X109566667Y-127819283D01*
X109566667Y-127819283D02*
X109133333Y-127819283D01*
X108900000Y-127119283D02*
X108466666Y-127119283D01*
X108466666Y-127119283D02*
X108700000Y-127385950D01*
X108700000Y-127385950D02*
X108600000Y-127385950D01*
X108600000Y-127385950D02*
X108533333Y-127419283D01*
X108533333Y-127419283D02*
X108500000Y-127452616D01*
X108500000Y-127452616D02*
X108466666Y-127519283D01*
X108466666Y-127519283D02*
X108466666Y-127685950D01*
X108466666Y-127685950D02*
X108500000Y-127752616D01*
X108500000Y-127752616D02*
X108533333Y-127785950D01*
X108533333Y-127785950D02*
X108600000Y-127819283D01*
X108600000Y-127819283D02*
X108800000Y-127819283D01*
X108800000Y-127819283D02*
X108866666Y-127785950D01*
X108866666Y-127785950D02*
X108900000Y-127752616D01*
D10*
X114345991Y-117753571D02*
X114386467Y-117875000D01*
X114386467Y-117875000D02*
X114386467Y-118077381D01*
X114386467Y-118077381D02*
X114345991Y-118158333D01*
X114345991Y-118158333D02*
X114305514Y-118198809D01*
X114305514Y-118198809D02*
X114224562Y-118239286D01*
X114224562Y-118239286D02*
X114143610Y-118239286D01*
X114143610Y-118239286D02*
X114062657Y-118198809D01*
X114062657Y-118198809D02*
X114022181Y-118158333D01*
X114022181Y-118158333D02*
X113981705Y-118077381D01*
X113981705Y-118077381D02*
X113941229Y-117915476D01*
X113941229Y-117915476D02*
X113900752Y-117834524D01*
X113900752Y-117834524D02*
X113860276Y-117794047D01*
X113860276Y-117794047D02*
X113779324Y-117753571D01*
X113779324Y-117753571D02*
X113698371Y-117753571D01*
X113698371Y-117753571D02*
X113617419Y-117794047D01*
X113617419Y-117794047D02*
X113576943Y-117834524D01*
X113576943Y-117834524D02*
X113536467Y-117915476D01*
X113536467Y-117915476D02*
X113536467Y-118117857D01*
X113536467Y-118117857D02*
X113576943Y-118239286D01*
X113536467Y-118765476D02*
X113536467Y-118927381D01*
X113536467Y-118927381D02*
X113576943Y-119008333D01*
X113576943Y-119008333D02*
X113657895Y-119089286D01*
X113657895Y-119089286D02*
X113819800Y-119129762D01*
X113819800Y-119129762D02*
X114103133Y-119129762D01*
X114103133Y-119129762D02*
X114265038Y-119089286D01*
X114265038Y-119089286D02*
X114345991Y-119008333D01*
X114345991Y-119008333D02*
X114386467Y-118927381D01*
X114386467Y-118927381D02*
X114386467Y-118765476D01*
X114386467Y-118765476D02*
X114345991Y-118684524D01*
X114345991Y-118684524D02*
X114265038Y-118603571D01*
X114265038Y-118603571D02*
X114103133Y-118563095D01*
X114103133Y-118563095D02*
X113819800Y-118563095D01*
X113819800Y-118563095D02*
X113657895Y-118603571D01*
X113657895Y-118603571D02*
X113576943Y-118684524D01*
X113576943Y-118684524D02*
X113536467Y-118765476D01*
X114386467Y-119494047D02*
X113536467Y-119494047D01*
X113536467Y-119494047D02*
X113536467Y-119817857D01*
X113536467Y-119817857D02*
X113576943Y-119898809D01*
X113576943Y-119898809D02*
X113617419Y-119939286D01*
X113617419Y-119939286D02*
X113698371Y-119979762D01*
X113698371Y-119979762D02*
X113819800Y-119979762D01*
X113819800Y-119979762D02*
X113900752Y-119939286D01*
X113900752Y-119939286D02*
X113941229Y-119898809D01*
X113941229Y-119898809D02*
X113981705Y-119817857D01*
X113981705Y-119817857D02*
X113981705Y-119494047D01*
X113819800Y-121355952D02*
X114386467Y-121355952D01*
X113495991Y-121153571D02*
X114103133Y-120951190D01*
X114103133Y-120951190D02*
X114103133Y-121477381D01*
X113819800Y-122165476D02*
X114386467Y-122165476D01*
X113495991Y-121963095D02*
X114103133Y-121760714D01*
X114103133Y-121760714D02*
X114103133Y-122286905D01*
X115498467Y-101671427D02*
X114648467Y-101671427D01*
X114648467Y-101671427D02*
X115255610Y-101954761D01*
X115255610Y-101954761D02*
X114648467Y-102238094D01*
X114648467Y-102238094D02*
X115498467Y-102238094D01*
X114648467Y-102561904D02*
X115498467Y-103128571D01*
X114648467Y-103128571D02*
X115498467Y-102561904D01*
X114729419Y-103411904D02*
X114688943Y-103452380D01*
X114688943Y-103452380D02*
X114648467Y-103533333D01*
X114648467Y-103533333D02*
X114648467Y-103735714D01*
X114648467Y-103735714D02*
X114688943Y-103816666D01*
X114688943Y-103816666D02*
X114729419Y-103857142D01*
X114729419Y-103857142D02*
X114810371Y-103897619D01*
X114810371Y-103897619D02*
X114891324Y-103897619D01*
X114891324Y-103897619D02*
X115012752Y-103857142D01*
X115012752Y-103857142D02*
X115498467Y-103371428D01*
X115498467Y-103371428D02*
X115498467Y-103897619D01*
X115498467Y-104302381D02*
X115498467Y-104464285D01*
X115498467Y-104464285D02*
X115457991Y-104545238D01*
X115457991Y-104545238D02*
X115417514Y-104585714D01*
X115417514Y-104585714D02*
X115296086Y-104666666D01*
X115296086Y-104666666D02*
X115134181Y-104707143D01*
X115134181Y-104707143D02*
X114810371Y-104707143D01*
X114810371Y-104707143D02*
X114729419Y-104666666D01*
X114729419Y-104666666D02*
X114688943Y-104626190D01*
X114688943Y-104626190D02*
X114648467Y-104545238D01*
X114648467Y-104545238D02*
X114648467Y-104383333D01*
X114648467Y-104383333D02*
X114688943Y-104302381D01*
X114688943Y-104302381D02*
X114729419Y-104261904D01*
X114729419Y-104261904D02*
X114810371Y-104221428D01*
X114810371Y-104221428D02*
X115012752Y-104221428D01*
X115012752Y-104221428D02*
X115093705Y-104261904D01*
X115093705Y-104261904D02*
X115134181Y-104302381D01*
X115134181Y-104302381D02*
X115174657Y-104383333D01*
X115174657Y-104383333D02*
X115174657Y-104545238D01*
X115174657Y-104545238D02*
X115134181Y-104626190D01*
X115134181Y-104626190D02*
X115093705Y-104666666D01*
X115093705Y-104666666D02*
X115012752Y-104707143D01*
X115498467Y-105476190D02*
X115498467Y-105071428D01*
X115498467Y-105071428D02*
X114648467Y-105071428D01*
X114648467Y-105678571D02*
X114648467Y-106204762D01*
X114648467Y-106204762D02*
X114972276Y-105921428D01*
X114972276Y-105921428D02*
X114972276Y-106042857D01*
X114972276Y-106042857D02*
X115012752Y-106123809D01*
X115012752Y-106123809D02*
X115053229Y-106164285D01*
X115053229Y-106164285D02*
X115134181Y-106204762D01*
X115134181Y-106204762D02*
X115336562Y-106204762D01*
X115336562Y-106204762D02*
X115417514Y-106164285D01*
X115417514Y-106164285D02*
X115457991Y-106123809D01*
X115457991Y-106123809D02*
X115498467Y-106042857D01*
X115498467Y-106042857D02*
X115498467Y-105800000D01*
X115498467Y-105800000D02*
X115457991Y-105719047D01*
X115457991Y-105719047D02*
X115417514Y-105678571D01*
X114729419Y-106528571D02*
X114688943Y-106569047D01*
X114688943Y-106569047D02*
X114648467Y-106650000D01*
X114648467Y-106650000D02*
X114648467Y-106852381D01*
X114648467Y-106852381D02*
X114688943Y-106933333D01*
X114688943Y-106933333D02*
X114729419Y-106973809D01*
X114729419Y-106973809D02*
X114810371Y-107014286D01*
X114810371Y-107014286D02*
X114891324Y-107014286D01*
X114891324Y-107014286D02*
X115012752Y-106973809D01*
X115012752Y-106973809D02*
X115498467Y-106488095D01*
X115498467Y-106488095D02*
X115498467Y-107014286D01*
X115498467Y-108026190D02*
X114648467Y-108026190D01*
X114648467Y-108026190D02*
X114648467Y-108350000D01*
X114648467Y-108350000D02*
X114688943Y-108430952D01*
X114688943Y-108430952D02*
X114729419Y-108471429D01*
X114729419Y-108471429D02*
X114810371Y-108511905D01*
X114810371Y-108511905D02*
X114931800Y-108511905D01*
X114931800Y-108511905D02*
X115012752Y-108471429D01*
X115012752Y-108471429D02*
X115053229Y-108430952D01*
X115053229Y-108430952D02*
X115093705Y-108350000D01*
X115093705Y-108350000D02*
X115093705Y-108026190D01*
X115498467Y-108876190D02*
X114931800Y-108876190D01*
X114648467Y-108876190D02*
X114688943Y-108835714D01*
X114688943Y-108835714D02*
X114729419Y-108876190D01*
X114729419Y-108876190D02*
X114688943Y-108916667D01*
X114688943Y-108916667D02*
X114648467Y-108876190D01*
X114648467Y-108876190D02*
X114729419Y-108876190D01*
X114931800Y-109280952D02*
X115498467Y-109280952D01*
X115012752Y-109280952D02*
X114972276Y-109321429D01*
X114972276Y-109321429D02*
X114931800Y-109402381D01*
X114931800Y-109402381D02*
X114931800Y-109523810D01*
X114931800Y-109523810D02*
X114972276Y-109604762D01*
X114972276Y-109604762D02*
X115053229Y-109645238D01*
X115053229Y-109645238D02*
X115498467Y-109645238D01*
X115498467Y-110495239D02*
X115498467Y-110009524D01*
X115498467Y-110252381D02*
X114648467Y-110252381D01*
X114648467Y-110252381D02*
X114769895Y-110171429D01*
X114769895Y-110171429D02*
X114850848Y-110090477D01*
X114850848Y-110090477D02*
X114891324Y-110009524D01*
X114931800Y-110738096D02*
X114931800Y-111061905D01*
X114648467Y-110859524D02*
X115377038Y-110859524D01*
X115377038Y-110859524D02*
X115457991Y-110900001D01*
X115457991Y-110900001D02*
X115498467Y-110980953D01*
X115498467Y-110980953D02*
X115498467Y-111061905D01*
X115498467Y-111466667D02*
X115457991Y-111385715D01*
X115457991Y-111385715D02*
X115417514Y-111345238D01*
X115417514Y-111345238D02*
X115336562Y-111304762D01*
X115336562Y-111304762D02*
X115093705Y-111304762D01*
X115093705Y-111304762D02*
X115012752Y-111345238D01*
X115012752Y-111345238D02*
X114972276Y-111385715D01*
X114972276Y-111385715D02*
X114931800Y-111466667D01*
X114931800Y-111466667D02*
X114931800Y-111588096D01*
X114931800Y-111588096D02*
X114972276Y-111669048D01*
X114972276Y-111669048D02*
X115012752Y-111709524D01*
X115012752Y-111709524D02*
X115093705Y-111750000D01*
X115093705Y-111750000D02*
X115336562Y-111750000D01*
X115336562Y-111750000D02*
X115417514Y-111709524D01*
X115417514Y-111709524D02*
X115457991Y-111669048D01*
X115457991Y-111669048D02*
X115498467Y-111588096D01*
X115498467Y-111588096D02*
X115498467Y-111466667D01*
X114729419Y-112073810D02*
X114688943Y-112114286D01*
X114688943Y-112114286D02*
X114648467Y-112195239D01*
X114648467Y-112195239D02*
X114648467Y-112397620D01*
X114648467Y-112397620D02*
X114688943Y-112478572D01*
X114688943Y-112478572D02*
X114729419Y-112519048D01*
X114729419Y-112519048D02*
X114810371Y-112559525D01*
X114810371Y-112559525D02*
X114891324Y-112559525D01*
X114891324Y-112559525D02*
X115012752Y-112519048D01*
X115012752Y-112519048D02*
X115498467Y-112033334D01*
X115498467Y-112033334D02*
X115498467Y-112559525D01*
X114648467Y-112842858D02*
X114648467Y-113369049D01*
X114648467Y-113369049D02*
X114972276Y-113085715D01*
X114972276Y-113085715D02*
X114972276Y-113207144D01*
X114972276Y-113207144D02*
X115012752Y-113288096D01*
X115012752Y-113288096D02*
X115053229Y-113328572D01*
X115053229Y-113328572D02*
X115134181Y-113369049D01*
X115134181Y-113369049D02*
X115336562Y-113369049D01*
X115336562Y-113369049D02*
X115417514Y-113328572D01*
X115417514Y-113328572D02*
X115457991Y-113288096D01*
X115457991Y-113288096D02*
X115498467Y-113207144D01*
X115498467Y-113207144D02*
X115498467Y-112964287D01*
X115498467Y-112964287D02*
X115457991Y-112883334D01*
X115457991Y-112883334D02*
X115417514Y-112842858D01*
D12*
%TO.C,J1*%
X108700000Y-100300000D02*
X111800000Y-100300000D01*
X108700000Y-128300000D02*
X111800000Y-128300000D01*
X116800000Y-100300000D02*
X119900000Y-100300000D01*
X116800000Y-128300000D02*
X119900000Y-128300000D01*
D13*
X119850000Y-101400000D02*
G75*
G02*
X118950000Y-101400000I-450000J0D01*
G01*
X118950000Y-101400000D02*
G75*
G02*
X119850000Y-101400000I450000J0D01*
G01*
%TD*%
%LPC*%
D14*
%TO.C,J1*%
X121550000Y-100965000D03*
D15*
X121550000Y-102235000D03*
X121550000Y-103505000D03*
X121550000Y-104775000D03*
X121550000Y-106045000D03*
X121550000Y-107315000D03*
X121550000Y-108585000D03*
X121550000Y-109855000D03*
X121550000Y-111125000D03*
X121550000Y-112395000D03*
X121550000Y-113665000D03*
X121550000Y-114935000D03*
X121550000Y-116205000D03*
X121550000Y-117475000D03*
X121550000Y-118745000D03*
X121550000Y-120015000D03*
X121550000Y-121285000D03*
X121550000Y-122555000D03*
X121550000Y-123825000D03*
X121550000Y-125095000D03*
X121550000Y-126365000D03*
X121550000Y-127635000D03*
X107050000Y-127635000D03*
X107050000Y-126365000D03*
X107050000Y-125095000D03*
X107050000Y-123825000D03*
X107050000Y-122555000D03*
X107050000Y-121285000D03*
X107050000Y-120015000D03*
X107050000Y-118745000D03*
X107050000Y-117475000D03*
X107050000Y-116205000D03*
X107050000Y-114935000D03*
X107050000Y-113665000D03*
X107050000Y-112395000D03*
X107050000Y-111125000D03*
X107050000Y-109855000D03*
X107050000Y-108585000D03*
X107050000Y-107315000D03*
X107050000Y-106045000D03*
X107050000Y-104775000D03*
X107050000Y-103505000D03*
X107050000Y-102235000D03*
X107050000Y-100965000D03*
%TD*%
%LPD*%
M02*
